<?xml version="1.0" encoding="utf-8"?>
<!DOCTYPE svg PUBLIC "-//W3C//DTD SVG 1.0//EN" "http://www.w3.org/TR/2001/REC-SVG-20010904/DTD/svg10.dtd">
<svg version="1.0" xmlns="http://www.w3.org/2000/svg" width="267px" height="243px" viewBox="0 0 267 243" preserveAspectRatio="xMidYMid meet">
 <g fill="#fafbfc">
  <path d="M0 121.72 l0 -121.72 133.50 0 133.50 0 0 121.72 0 121.72 -133.50 0 -133.50 0 0 -121.72z m60.08 88.84 c-0.10 -0.20 -0.17 0.96 -0.15 2.58 l0.05 2.94 0.15 -2.58 c0.07 -1.42 0.05 -2.75 -0.05 -2.94z m17.55 2.72 c0.22 -0.27 0.22 -0.37 0 -0.44 -0.42 -0.15 -0.44 -4.52 -0.02 -4.93 0.22 -0.22 0.20 -0.29 -0.12 -0.29 -0.37 0 -0.42 0.39 -0.37 4.25 0.02 2.31 0.07 3.68 0.12 2.99 0.07 -0.66 0.25 -1.37 0.39 -1.57z m75.93 -0.32 c-0.05 -0.59 -0.10 -0.12 -0.10 1.03 0 1.15 0.05 1.62 0.10 1.06 0.05 -0.59 0.05 -1.52 0 -2.09z m7.63 0.98 l-0.05 -2.04 -0.12 1.84 c-0.07 1.01 -0.12 1.91 -0.07 2.04 0.22 0.52 0.29 -0.02 0.25 -1.84z m3.53 -1.10 c0.05 -1.13 0 -2.04 -0.10 -2.04 -0.12 0 -0.17 1.18 -0.17 2.65 0.05 2.85 0.17 2.60 0.27 -0.61z m4.79 -1.10 c-0.05 -0.86 -0.07 -0.22 -0.07 1.40 0 1.62 0.02 2.31 0.07 1.55 0.05 -0.79 0.05 -2.11 0 -2.94z m3.78 1.45 c0.02 -1.45 -0.02 -2.72 -0.12 -2.80 -0.07 -0.10 -0.15 1.15 -0.15 2.75 0 1.60 0.05 2.85 0.10 2.80 0.07 -0.07 0.15 -1.30 0.17 -2.75z m5.06 0.02 c-0.05 -0.59 -0.10 -0.17 -0.10 0.91 0 1.08 0.05 1.55 0.10 1.06 0.05 -0.52 0.05 -1.40 0 -1.96z m16.27 0.07 l0.61 -0.10 -0.61 -0.15 c-0.59 -0.17 -0.61 -0.25 -0.69 -2.45 -0.05 -1.47 0.02 -2.40 0.22 -2.63 0.22 -0.27 0.20 -0.34 -0.12 -0.34 -0.34 0 -0.39 0.47 -0.34 4.25 0.02 2.43 0.10 3.66 0.17 2.87 0.12 -1.20 0.22 -1.35 0.76 -1.45z m15.90 0.54 l-0.05 -2.16 -0.12 1.96 c-0.07 1.08 -0.12 2.04 -0.07 2.16 0.22 0.52 0.29 -0.05 0.25 -1.96z m8.88 -4.61 c-0.10 -0.88 -0.12 -0.91 -0.20 -0.25 -0.05 0.39 -0.22 0.81 -0.37 0.91 -0.22 0.15 -0.22 0.20 0.02 0.20 0.22 0 0.32 0.79 0.34 3.02 l0.05 2.99 0.15 -2.94 c0.07 -1.62 0.07 -3.39 0 -3.93z m17.20 3.85 c0.02 -1.52 -0.05 -2.85 -0.12 -2.92 -0.07 -0.10 -0.15 1.20 -0.15 2.87 0 1.67 0.05 2.97 0.12 2.92 0.05 -0.07 0.12 -1.37 0.15 -2.87z m4.81 -0.83 c-0.05 -0.71 -0.07 -0.15 -0.07 1.28 0 1.42 0.02 1.99 0.07 1.30 0.05 -0.71 0.05 -1.89 0 -2.58z m4.91 0.47 c-0.05 -0.56 -0.07 -0.02 -0.07 1.18 0 1.23 0.02 1.67 0.07 1.03 0.05 -0.64 0.05 -1.64 0 -2.21z m-206.07 2.48 c0 -0.29 -0.02 -0.47 -0.07 -0.42 -0.02 0.05 -0.22 0.29 -0.39 0.54 -0.29 0.34 -0.27 0.42 0.07 0.42 0.25 0 0.39 -0.20 0.39 -0.54z m8.59 0 c0 -0.29 -0.02 -0.47 -0.07 -0.42 -0.02 0.05 -0.22 0.29 -0.39 0.54 -0.29 0.34 -0.27 0.42 0.07 0.42 0.25 0 0.39 -0.20 0.39 -0.54z m16.37 -2.45 c-0.05 -0.59 -0.10 -0.12 -0.10 1.03 0 1.15 0.05 1.62 0.10 1.06 0.05 -0.59 0.05 -1.52 0 -2.09z m48.42 2.33 c0 -0.71 -0.05 -0.71 -0.47 0.12 -0.25 0.44 -0.22 0.54 0.10 0.54 0.25 0 0.37 -0.22 0.37 -0.66z m73.23 0.02 c0.07 -0.22 0.15 -1.37 0.15 -2.58 0 -1.87 -0.05 -2.16 -0.39 -2.01 -0.27 0.10 -0.29 0.22 -0.12 0.39 0.15 0.15 0.27 0.96 0.27 1.79 0 1.15 -0.12 1.64 -0.52 2.16 -0.49 0.61 -0.49 0.64 -0.02 0.64 0.27 0 0.56 -0.17 0.64 -0.39z m27.83 -4.66 c0.39 -0.32 0.39 -0.32 0 -0.34 -0.29 0 -0.44 -0.27 -0.52 -0.91 -0.05 -0.52 -0.07 0.56 -0.07 2.38 0 1.94 0.02 2.45 0.07 1.25 0.07 -1.60 0.20 -2.14 0.52 -2.38z m17.03 1.67 c0.05 -0.69 0 -1.28 -0.10 -1.28 -0.12 0 -0.17 0.81 -0.17 1.79 0.05 1.87 0.15 1.67 0.27 -0.52z m-162.46 -1.69 c0.17 -0.22 0.17 -0.32 0 -0.32 -0.15 0 -0.32 -0.42 -0.37 -0.91 -0.05 -0.52 -0.10 0.39 -0.07 2.01 0 1.62 0.05 2.18 0.07 1.23 0.05 -0.93 0.22 -1.84 0.37 -2.01z m59.73 2.72 c-0.10 -0.34 -0.22 -0.59 -0.29 -0.52 -0.07 0.05 -0.05 0.42 0.05 0.76 0.07 0.37 0.22 0.61 0.27 0.54 0.07 -0.07 0.05 -0.42 -0.02 -0.79z m-20.34 -2.11 c-0.05 -0.59 -0.10 -0.17 -0.10 0.91 0 1.08 0.05 1.55 0.10 1.06 0.05 -0.52 0.05 -1.40 0 -1.96z m-68.22 -0.12 c-0.05 -0.52 -0.10 -0.15 -0.10 0.79 0 0.96 0.05 1.35 0.10 0.93 0.05 -0.44 0.05 -1.23 0 -1.72z m76.93 0.79 c0.05 -0.47 0 -0.86 -0.10 -0.86 -0.10 0 -0.20 0.39 -0.20 0.86 0 0.47 0.05 0.86 0.10 0.86 0.05 0 0.15 -0.39 0.20 -0.86z m31.31 -1.06 c-0.10 -0.05 -0.22 -0.83 -0.25 -1.72 -0.02 -1.50 -0.05 -1.52 -0.15 -0.42 -0.05 0.69 0 1.72 0.10 2.33 0.15 0.96 0.20 1.03 0.34 0.49 0.07 -0.34 0.07 -0.64 -0.05 -0.69z m54.21 -0.59 c-0.05 -0.32 -0.10 -0.07 -0.10 0.54 0 0.61 0.05 0.86 0.10 0.56 0.05 -0.32 0.05 -0.81 0 -1.10z m-171.95 0.05 c-0.69 -0.20 -0.86 -0.15 -0.64 0.20 0.07 0.15 0.39 0.17 0.71 0.10 0.54 -0.15 0.54 -0.15 -0.07 -0.29z m18.09 -2.38 c-0.05 -0.39 -0.10 -0.12 -0.10 0.54 0 0.69 0.05 0.98 0.10 0.69 0.05 -0.32 0.05 -0.86 0 -1.23z m149.52 -9.96 c0.61 -0.17 1.37 -0.49 1.72 -0.71 0.32 -0.25 0.74 -0.44 0.91 -0.44 0.52 0 3.36 -3.02 4.05 -4.32 1.30 -2.43 1.42 -3.51 1.42 -14.01 l0 -9.64 -1.94 0 -1.94 0 -0.10 10.38 c-0.10 9.03 -0.15 10.50 -0.52 11.44 -0.66 1.69 -1.57 2.72 -3.09 3.44 -1.23 0.56 -1.67 0.64 -3.95 0.64 -2.21 -0.02 -2.75 -0.10 -3.68 -0.59 -1.50 -0.76 -2.16 -1.40 -2.82 -2.72 -0.98 -1.91 -1.10 -3.51 -1.10 -13.18 l0 -9.18 -2.01 0.07 -2.04 0.07 0 9.45 c0 8.47 0.05 9.60 0.44 10.92 1.03 3.31 2.77 5.62 5.28 6.94 2.92 1.55 6.77 2.14 9.37 1.45z m-132.74 -0.81 c0.52 -0.32 0.98 -0.69 1.08 -0.83 0.07 -0.12 0.74 -0.25 1.47 -0.25 1.30 0 1.33 0 1.40 0.81 l0.07 0.79 1.96 0.07 c1.08 0.05 2.21 0 2.50 -0.07 l0.56 -0.12 0 -5.60 c0 -6.50 -0.27 -9.20 -1.13 -11.09 -1.25 -2.72 -2.77 -4.02 -5.84 -4.96 -1.45 -0.44 -2.09 -0.49 -4.42 -0.37 -2.85 0.15 -4.39 0.56 -6.72 1.74 l-1.28 0.64 0.79 1.60 0.79 1.60 1.01 -0.59 c2.11 -1.25 7.09 -1.52 9.08 -0.49 1.28 0.64 2.09 2.16 2.09 3.93 l0 1.28 -4.22 -0.05 c-3.75 -0.02 -4.44 0.05 -5.96 0.52 -2.11 0.66 -3.31 1.64 -4.15 3.31 -2.23 4.49 2.36 9.37 8.32 8.86 1.18 -0.10 1.99 -0.32 2.60 -0.71z m92.10 0.25 c0.27 -0.20 0.66 -0.34 0.88 -0.34 0.20 0 1.28 -0.83 2.38 -1.87 2.31 -2.11 3.56 -4.25 4.05 -6.92 0.74 -3.98 -1.47 -8.71 -5.18 -11.09 -3.44 -2.18 -8.42 -2.33 -12.12 -0.29 -2.85 1.55 -5.30 5.06 -5.79 8.27 -0.83 5.47 3.21 11.04 9.13 12.54 1.62 0.42 5.91 0.22 6.65 -0.29z m-130.41 -5.87 l0.12 -6.14 1.47 -0.20 c0.81 -0.10 4.07 -0.15 7.24 -0.12 l5.77 0.07 0.07 6.33 0.05 6.31 2.53 0 c1.37 0 2.65 -0.10 2.82 -0.20 0.25 -0.17 0.29 -3.21 0.25 -14.43 l-0.07 -14.21 -2.21 -0.07 c-3.66 -0.12 -3.29 -0.74 -3.36 5.91 l-0.07 5.69 -7.29 0.07 -7.31 0.05 0 -5.89 0 -5.91 -2.75 0.07 -2.77 0.07 -0.07 14.11 c-0.02 7.75 0 14.26 0.07 14.43 0.07 0.22 0.79 0.29 2.75 0.25 l2.65 -0.07 0.12 -6.14z m59.49 6.11 c0.34 -0.12 0.39 -0.98 0.39 -7.12 0 -8.10 0.07 -8.44 1.91 -9.67 1.06 -0.69 1.25 -0.74 3.48 -0.74 2.06 0 2.48 0.07 3.04 0.52 1.45 1.13 1.50 1.40 1.62 9.55 l0.12 7.48 2.70 0 2.70 0 0.12 -7.36 c0.07 -4.93 0.22 -7.53 0.42 -7.85 0.37 -0.64 1.52 -1.69 2.26 -2.09 0.34 -0.17 1.57 -0.32 2.75 -0.34 2.40 -0.02 3.12 0.29 4.02 1.84 0.44 0.76 0.49 1.40 0.61 8.32 l0.12 7.48 2.70 0 2.70 0 0 -7.24 c0 -6.28 -0.05 -7.46 -0.47 -8.88 -0.54 -1.99 -1.67 -3.63 -3.19 -4.74 -1.52 -1.08 -2.94 -1.45 -5.23 -1.30 -2.31 0.12 -4.05 0.91 -5.72 2.55 -1.52 1.47 -1.99 1.42 -3.83 -0.37 -1.94 -1.87 -3.31 -2.36 -6.01 -2.16 -2.18 0.17 -3.75 0.81 -5.06 2.06 -0.59 0.52 -1.13 0.81 -1.57 0.81 -0.69 0 -0.71 -0.02 -0.71 -1.35 l0 -1.35 -2.58 0 -2.58 0 0 10.87 c0 5.99 0.07 10.97 0.17 11.04 0.20 0.22 4.56 0.22 5.08 0.02z m44.37 -6.65 c0.07 -6.45 0.10 -6.87 0.61 -7.83 0.52 -0.96 1.52 -1.89 2.70 -2.53 0.29 -0.15 1.37 -0.34 2.40 -0.44 l1.84 -0.15 0 -2.31 0 -2.33 -1.03 0.17 c-1.55 0.25 -3.39 1.15 -4.42 2.18 -0.64 0.61 -1.13 0.88 -1.62 0.88 -0.86 0 -1.03 -0.32 -1.03 -1.87 l0 -1.08 -2.45 0 -2.45 0 0 11.04 0 11.04 2.67 0 2.70 0 0.07 -6.80z m87.85 -0.37 c0.10 -7.93 0.17 -8.34 1.74 -9.96 0.93 -0.96 1.96 -1.28 4.29 -1.28 2.70 0 3.93 0.71 4.88 2.82 0.37 0.86 0.44 1.94 0.52 8.29 l0.10 7.29 2.21 0 2.18 0 -0.07 -7.78 c-0.10 -7.53 -0.10 -7.85 -0.66 -9.28 -0.42 -1.01 -1.03 -1.89 -1.96 -2.85 -1.79 -1.79 -3.19 -2.28 -6.01 -2.14 -2.23 0.12 -3.46 0.64 -5.03 2.04 -0.66 0.59 -1.18 0.86 -1.72 0.86 l-0.76 0 0 -1.47 0 -1.47 -2.09 0 -2.09 0 0 11.04 0 11.04 2.18 0 2.18 0 0.10 -7.17z m27.07 6.92 c0.07 -0.12 0.07 -5.08 -0.02 -11.04 l-0.17 -10.80 -1.94 0 -1.91 0 0 11.04 0 11.04 1.94 0 c1.08 0 2.01 -0.10 2.11 -0.25z m-0.52 -26.75 c1.40 -1.23 1.33 -2.50 -0.20 -3.73 -1.06 -0.88 -2.65 -0.27 -3.46 1.30 -0.34 0.64 -0.34 0.79 0 1.45 0.42 0.81 1.69 1.72 2.38 1.72 0.25 0 0.81 -0.34 1.28 -0.74z m-108.71 -15.93 c0.07 -0.10 0.61 -0.27 1.23 -0.34 3.19 -0.44 7.93 -4.37 9.84 -8.10 1.06 -2.14 1.47 -2.50 3.80 -3.48 0.88 -0.37 1.94 -0.93 2.38 -1.25 0.93 -0.69 2.87 -1.57 3.51 -1.57 0.22 0 0.59 -0.17 0.76 -0.42 0.34 -0.39 4.20 -2.28 4.71 -2.28 0.12 0 0.81 -0.27 1.50 -0.59 0.69 -0.32 1.69 -0.64 2.21 -0.71 0.52 -0.10 1.20 -0.37 1.50 -0.66 0.29 -0.27 0.74 -0.49 1.01 -0.49 0.27 0 0.91 -0.22 1.42 -0.49 0.54 -0.27 1.69 -0.71 2.58 -0.98 0.88 -0.27 2.11 -0.66 2.72 -0.86 1.96 -0.61 4.20 -1.10 5.03 -1.10 0.69 0 0.81 0.10 0.96 0.76 0.29 1.45 0.15 2.40 -0.47 3.31 -0.34 0.49 -0.61 1.13 -0.61 1.37 0 0.66 1.55 2.16 2.21 2.16 0.79 0 2.21 -1.52 2.21 -2.33 0 -0.64 -1.03 -1.87 -2.04 -2.45 -0.32 -0.17 -0.47 -0.69 -0.59 -1.87 -0.12 -1.55 -0.10 -1.67 0.44 -2.01 0.32 -0.20 1.42 -0.49 2.40 -0.66 1.01 -0.15 1.96 -0.37 2.09 -0.47 0.29 -0.22 5.13 -1.13 7.39 -1.37 0.81 -0.10 1.60 -0.27 1.72 -0.37 0.27 -0.22 2.85 -0.52 9.94 -1.13 3.39 -0.29 6.18 -0.37 11.04 -0.27 3.58 0.07 6.70 0.20 6.97 0.32 0.39 0.15 0.42 0.10 0.20 -0.29 -0.22 -0.42 -4.39 -10.58 -10.63 -25.82 -2.14 -5.23 -2.33 -6.28 -1.42 -7.88 0.27 -0.49 0.32 -0.64 0.07 -0.32 -0.27 0.37 -0.66 0.54 -1.20 0.54 -0.91 0 -0.52 0.79 -4.07 -7.73 -1.45 -3.51 -4.10 -9.74 -5.84 -13.87 l-3.17 -7.48 -1.79 -0.29 c-1.01 -0.15 -2.94 -0.37 -4.34 -0.47 l-2.50 -0.17 0.59 1.33 0.56 1.33 2.67 0.17 c1.60 0.12 2.77 0.32 2.94 0.49 0.34 0.37 1.01 1.96 6.26 14.92 4.34 10.75 4.61 11.78 3.12 11.78 -0.54 0 -1.06 -0.25 -1.64 -0.79 -0.49 -0.44 0.07 0.20 1.28 1.42 1.79 1.89 2.14 2.38 2.14 3.04 0 0.81 0.83 2.45 1.25 2.45 0.12 0 0.22 3.07 0.22 7.39 l0 7.39 -0.93 0.93 c-0.79 0.74 -1.20 0.93 -2.28 1.08 -2.80 0.37 -8.74 1.79 -8.49 2.04 0.05 0.05 1.23 -0.20 2.60 -0.52 1.37 -0.34 3.58 -0.74 4.93 -0.91 l2.43 -0.29 0.76 0.79 c0.42 0.42 0.91 0.76 1.08 0.76 0.42 0 1.33 -0.69 1.62 -1.23 0.29 -0.56 -0.22 -1.82 -0.86 -2.04 -0.32 -0.15 -0.37 -0.93 -0.37 -5.57 l0 -5.40 1.18 0 1.15 0 1.64 4.12 c4.29 10.72 5.10 12.93 5.10 13.82 l0 0.93 -4.86 0 c-2.67 0 -6.23 0.12 -7.90 0.27 -5.45 0.47 -13.52 1.77 -18.21 2.97 -1.03 0.25 -2.21 0.47 -2.63 0.47 -0.69 0 -0.76 -0.07 -0.76 -0.79 0 -0.47 0.22 -1.03 0.56 -1.40 l0.54 -0.61 -0.66 0.42 c-0.88 0.54 -1.87 0.52 -2.77 -0.07 -0.52 -0.34 -1.15 -0.49 -2.09 -0.49 l-1.35 0 -2.40 -2.72 c-1.99 -2.26 -2.38 -2.85 -2.38 -3.53 0 -0.44 0.15 -0.91 0.32 -1.06 0.39 -0.32 5.20 -1.52 9.37 -2.36 6.36 -1.25 12.86 -2.04 18.95 -2.33 1.91 -0.07 3.53 -0.22 3.61 -0.29 0.07 -0.07 -2.01 -5.15 -4.64 -11.31 -3.63 -8.49 -4.79 -11.41 -4.79 -12.20 l0 -1.01 1.06 0 1.03 0 0.02 -1.03 c0.02 -0.59 0.12 -1.40 0.22 -1.82 0.15 -0.64 0.05 -0.91 -0.61 -1.67 -0.96 -1.08 -1.67 -1.30 -2.70 -0.76 -0.42 0.22 -1.10 0.37 -1.52 0.32 -0.81 -0.07 0.15 1.96 -9.67 -20.44 l-3.78 -8.59 -2.14 0.07 c-10.06 0.29 -20.74 3.61 -28.71 8.86 -2.65 1.72 -2.80 2.09 -1.40 3.29 0.52 0.44 0.56 0.42 2.40 -0.76 1.01 -0.69 2.38 -1.47 3.02 -1.77 0.64 -0.29 1.35 -0.64 1.55 -0.76 1.06 -0.66 4.32 -2.18 4.69 -2.18 0.25 0 0.49 -0.10 0.56 -0.22 0.07 -0.12 0.49 -0.27 0.93 -0.34 0.44 -0.07 1.87 -0.44 3.14 -0.79 1.28 -0.37 3.17 -0.81 4.17 -1.01 1.01 -0.17 2.01 -0.39 2.21 -0.49 0.54 -0.22 4.81 -0.66 6.50 -0.69 l1.45 -0.02 3.14 7.36 c1.72 4.05 4.20 9.74 5.47 12.64 1.64 3.73 2.33 5.55 2.33 6.23 l0 0.96 -1.52 -0.15 c-0.86 -0.07 -2.36 -0.32 -3.34 -0.54 -1.45 -0.34 -1.84 -0.54 -2.01 -1.01 -0.34 -0.88 -1.15 -1.57 -1.87 -1.57 -0.71 0 -2.06 1.20 -2.06 1.84 0 0.42 1.20 1.74 2.01 2.21 0.32 0.17 0.69 1.52 1.42 5.10 1.06 5.20 1.23 7.46 0.61 7.68 -0.20 0.07 -0.56 0.61 -0.83 1.15 l-0.49 1.03 -3.26 0.56 c-3.34 0.59 -10.18 2.26 -13.40 3.24 -3.12 0.96 -1.77 0.76 1.79 -0.27 1.89 -0.52 4.81 -1.25 6.50 -1.57 1.69 -0.34 3.53 -0.74 4.12 -0.86 0.56 -0.15 1.82 -0.25 2.77 -0.25 l1.74 0 -0.07 0.93 -0.10 0.91 1.67 -0.15 c1.82 -0.17 2.67 -0.69 3.24 -2.06 0.27 -0.59 0.27 -0.83 -0.02 -1.40 -0.20 -0.37 -0.34 -0.98 -0.34 -1.35 0 -0.66 -0.05 -0.69 -1.08 -0.61 l-1.10 0.10 -0.15 -0.96 c-0.10 -0.52 -0.56 -2.90 -1.01 -5.30 -0.52 -2.55 -0.83 -4.91 -0.79 -5.64 l0.07 -1.28 1.33 -0.07 c0.76 -0.05 2.53 0.20 4.22 0.54 1.62 0.34 2.97 0.64 3.04 0.64 0.05 0 0.32 0.52 0.61 1.13 0.59 1.35 0.64 2.72 0.12 3.46 -0.37 0.52 -0.34 0.54 0.66 0.61 l1.06 0.07 3.73 8.71 c3.61 8.37 4.20 10.18 3.46 10.43 -0.17 0.05 -1.87 0.22 -3.75 0.37 -4.59 0.34 -10.65 1.28 -15.46 2.36 -2.16 0.49 -4.56 0.93 -5.33 1.01 l-1.40 0.12 -0.07 -0.91 -0.07 -0.91 -0.83 1.10 c-0.74 1.01 -0.93 1.13 -2.09 1.25 -0.69 0.07 -1.82 0.20 -2.50 0.29 -1.06 0.12 -1.47 0.05 -2.55 -0.52 -0.69 -0.34 -1.33 -0.61 -1.37 -0.54 -0.05 0.05 0.47 0.34 1.15 0.66 1.15 0.56 1.23 0.64 1.15 1.45 l-0.07 0.86 -3.19 1.25 c-9.28 3.68 -16.79 8.29 -23.04 14.14 -1.94 1.82 -5.10 5.42 -6.28 7.17 -0.49 0.71 -0.76 0.91 -1.40 0.91 -0.66 0 -0.91 -0.20 -1.94 -1.64 -0.66 -0.93 -2.75 -3.21 -4.64 -5.13 -4.96 -4.98 -10.65 -9.06 -17.28 -12.37 -3.09 -1.55 -7.48 -3.41 -9.30 -3.95 -1.01 -0.29 -1.06 -0.34 -0.98 -1.18 0.07 -0.79 0.22 -0.96 1.30 -1.55 1.57 -0.86 1.25 -0.88 -0.42 -0.05 -1.03 0.52 -1.45 0.61 -2.38 0.49 -0.61 -0.10 -1.67 -0.15 -2.36 -0.15 -1.18 0.02 -1.28 -0.02 -2.26 -1.15 l-1.06 -1.18 0 0.81 c0 0.71 -0.07 0.79 -0.74 0.79 -0.39 0 -2.23 -0.34 -4.10 -0.74 -6.23 -1.37 -13.60 -2.50 -18.97 -2.90 l-2.33 -0.17 -0.07 -0.74 c-0.05 -0.54 0.98 -3.26 3.53 -9.20 1.99 -4.66 3.71 -8.61 3.85 -8.76 0.12 -0.20 0.79 -0.32 1.47 -0.32 l1.25 0 -0.66 -0.69 c-0.81 -0.83 -0.86 -1.99 -0.17 -3.53 l0.47 -1.10 3.19 -0.66 c1.74 -0.37 3.71 -0.64 4.34 -0.59 l1.20 0.07 -0.05 1.96 c-0.02 1.08 -0.42 4 -0.86 6.50 l-0.86 4.54 -1.08 0 c-1.18 0 -1.03 -0.25 -1.60 2.50 -0.12 0.59 -0.02 0.98 0.39 1.52 0.74 1.03 1.35 1.33 3.14 1.50 l1.52 0.12 0 -0.91 0 -0.93 1.74 0 c1.89 0 4.83 0.54 10.14 1.87 1.89 0.47 3.46 0.79 3.51 0.74 0.25 -0.25 -9.74 -2.58 -13.23 -3.09 l-2.16 -0.32 -0.49 -1.06 c-0.29 -0.56 -0.66 -1.10 -0.86 -1.18 -0.59 -0.22 -0.44 -2.04 0.59 -7.36 0.81 -4.25 1.01 -4.96 1.50 -5.28 2.33 -1.60 2.55 -2.85 0.74 -4.02 -0.86 -0.54 -1.99 -0.05 -2.53 1.13 -0.39 0.79 -0.56 0.91 -1.84 1.15 -0.76 0.15 -1.79 0.39 -2.26 0.52 -0.47 0.12 -1.35 0.22 -1.94 0.22 l-1.06 0 0.12 -1.03 c0.05 -0.61 1.55 -4.37 3.53 -8.91 1.89 -4.32 4.34 -9.99 5.47 -12.56 l2.04 -4.74 1.84 0 c2.04 0 5.87 0.52 9.37 1.28 5.45 1.15 11.63 3.71 16.52 6.77 l2.36 1.47 0.64 -0.49 c0.59 -0.47 0.79 -1.28 0.42 -1.82 -0.29 -0.49 -5.96 -3.80 -8.52 -5.03 -6.26 -2.94 -13.33 -4.64 -22.09 -5.25 l-2.21 -0.17 -1.15 2.67 c-0.64 1.45 -2.45 5.57 -4 9.15 -1.57 3.58 -3.58 8.17 -4.47 10.18 -3.24 7.44 -3.14 7.24 -3.98 7.24 -0.39 0 -1.06 -0.20 -1.45 -0.42 -0.71 -0.39 -0.79 -0.42 -1.62 0 -1.03 0.49 -1.94 1.79 -1.74 2.50 0.10 0.27 0.22 0.96 0.29 1.55 l0.15 1.03 1.10 0 1.10 0 -0.15 1.18 c-0.10 1.01 -3.88 10.26 -8.52 20.79 l-1.20 2.70 3.73 0.29 c10.58 0.83 21.60 2.60 27.68 4.39 1.13 0.34 1.20 0.42 1.20 1.15 0 0.44 -0.15 0.96 -0.29 1.15 -0.17 0.17 -0.05 0.15 0.29 -0.10 0.52 -0.34 0.98 -0.37 3.07 -0.25 2.18 0.15 2.80 0.32 5.64 1.45 8.39 3.36 15.14 7.44 20.12 12.17 1.57 1.50 1.84 1.87 1.84 2.58 0 0.79 -0.05 0.83 -0.79 0.83 -0.44 0 -1.13 -0.22 -1.55 -0.52 -0.39 -0.27 -1.06 -0.66 -1.47 -0.86 -0.39 -0.20 -0.54 -0.22 -0.27 -0.05 5.08 3.44 9.06 6.85 10.97 9.42 0.74 0.98 1.10 1.28 1.79 1.40 1.45 0.22 2.40 -0.20 3.17 -1.40 0.83 -1.35 4.12 -4.52 6.63 -6.38 1.03 -0.79 1.89 -1.45 1.89 -1.47 0 -0.02 -0.44 0 -0.98 0.05 -0.98 0.10 -0.98 0.10 -0.98 -0.76 0 -0.74 0.25 -1.08 1.96 -2.72 3.95 -3.78 8.79 -6.97 15.29 -10.09 5.57 -2.67 7.90 -3.46 10.80 -3.66 l2.38 -0.17 0.76 0.81 c0.42 0.44 1.57 1.79 2.58 2.97 1.64 1.96 1.82 2.26 1.82 3.21 l0 1.08 -5.57 0.10 c-4.47 0.10 -6.09 0.22 -7.98 0.64 -2.80 0.61 -6.77 1.72 -7.31 2.04 -0.64 0.37 0.10 0.25 1.57 -0.27 0.76 -0.25 2.58 -0.71 4.02 -1.03 2.33 -0.49 3.34 -0.56 8.88 -0.56 l6.26 0 0.07 1.01 0.07 1.01 -3.75 1.28 c-6.55 2.26 -12.91 4.88 -19.22 7.98 -3.39 1.64 -6.92 3.46 -7.90 4.02 -1.60 0.93 -1.79 1.13 -2.16 2.23 -0.52 1.60 -1.99 3.85 -3.26 4.98 -2.09 1.87 -4.52 2.65 -8.27 2.65 -4.17 0 -6.87 -1.06 -9.10 -3.51 -1.06 -1.18 -2.80 -4.27 -2.80 -5.01 0 -0.64 -9.79 -5.62 -17.67 -8.98 -3.93 -1.67 -12.91 -5.06 -14.55 -5.45 -0.64 -0.17 -0.69 -0.27 -0.61 -1.20 l0.07 -1.01 5.62 -0.07 c6.11 -0.07 8.74 0.25 13.15 1.52 1.13 0.34 2.11 0.56 2.16 0.52 0.05 -0.05 -0.66 -0.32 -1.60 -0.59 -6.09 -1.79 -9.28 -2.26 -15.22 -2.23 l-4.49 0 0 -1.03 c0 -0.71 0.17 -1.23 0.54 -1.64 0.52 -0.59 0.52 -0.59 -0.20 0.05 -0.66 0.59 -0.91 0.66 -2.23 0.61 -1.18 -0.05 -1.60 0.02 -1.99 0.39 -0.37 0.32 -0.79 0.42 -1.40 0.34 -0.56 -0.07 -0.79 -0.02 -0.61 0.15 0.15 0.15 0.25 0.61 0.25 1.06 0 0.74 -0.07 0.81 -0.74 0.81 -0.42 0 -2.26 -0.34 -4.12 -0.76 -9.28 -2.06 -16.56 -2.92 -24.88 -2.92 l-4.86 0 0 -0.93 c0 -0.83 1.06 -3.61 6.48 -16.91 0.52 -1.28 0.54 -1.30 1.57 -1.30 l1.03 0 0 5.52 c0 4.76 -0.05 5.55 -0.37 5.69 -0.22 0.07 -0.54 0.44 -0.76 0.83 -0.29 0.56 -0.29 0.83 -0.07 1.28 0.69 1.28 1.64 1.47 2.58 0.54 0.54 -0.54 0.81 -0.61 2.43 -0.61 1.03 0 3.04 0.27 4.59 0.61 1.52 0.32 3.04 0.66 3.39 0.71 0.34 0.07 -0.05 -0.07 -0.86 -0.37 -1.55 -0.52 -6.94 -1.67 -7.95 -1.69 -0.34 0 -0.96 -0.39 -1.52 -0.96 l-0.96 -0.96 0 -7.14 0 -7.17 0.64 -0.83 c0.34 -0.47 0.69 -1.30 0.76 -1.89 0.12 -0.96 0.42 -1.35 3.12 -4.12 1.62 -1.67 2.18 -2.31 1.20 -1.40 -1.47 1.40 -1.87 1.64 -2.63 1.64 -0.81 0 -0.88 -0.05 -0.88 -0.74 0 -1.40 9.89 -25.50 10.53 -25.69 0.22 -0.07 0.56 -0.20 0.76 -0.27 0.20 -0.07 1.37 -0.27 2.58 -0.42 l2.21 -0.25 0.54 -1.10 c0.29 -0.61 0.54 -1.20 0.56 -1.30 0 -0.22 -2.75 -0.05 -6.01 0.34 -1.87 0.25 -3.07 0.71 -3.07 1.20 0 0.12 -1.67 4.12 -3.71 8.88 -2.04 4.76 -4.47 10.55 -5.42 12.83 -2.87 7.02 -2.60 6.50 -3.48 6.50 -0.44 0 -0.93 -0.15 -1.13 -0.29 -0.17 -0.17 -0.07 0.07 0.20 0.56 0.29 0.49 0.54 1.25 0.54 1.69 0 0.44 -0.76 2.65 -1.72 4.93 -0.93 2.28 -2.50 6.06 -3.46 8.39 -0.96 2.31 -3.07 7.41 -4.69 11.29 -1.62 3.90 -2.90 7.14 -2.82 7.19 0.05 0.05 1.45 -0.02 3.14 -0.15 4 -0.32 12.83 -0.29 16.54 0 6.11 0.52 12.61 1.60 18.85 3.12 l3.61 0.88 -0.02 1.25 c-0.05 2.01 -0.27 2.65 -1.08 3.09 -0.39 0.22 -0.93 0.76 -1.18 1.20 -0.39 0.66 -0.42 0.88 -0.17 1.50 0.37 0.91 0.96 1.42 1.91 1.72 0.71 0.20 0.83 0.12 1.52 -0.69 0.91 -1.10 0.93 -1.99 0.10 -2.99 -0.59 -0.69 -0.64 -0.91 -0.52 -2.11 0.17 -1.64 0.47 -2.06 1.55 -2.06 2.09 0 14.33 4.54 22.04 8.15 7.04 3.31 9.62 4.76 9.96 5.62 0.54 1.28 2.18 3.66 3.48 5.06 2.23 2.33 5.72 4.15 9.08 4.71 1.74 0.29 5.03 0.32 5.20 0.05z m9.60 -21.50 l0.49 -0.39 -0.49 0.25 c-0.27 0.12 -0.71 0.42 -0.98 0.64 l-0.49 0.39 0.49 -0.25 c0.27 -0.12 0.71 -0.42 0.98 -0.64z m-26.63 -0.98 c0 -0.05 -0.32 -0.27 -0.74 -0.49 -0.93 -0.47 -0.98 -0.27 -0.05 0.22 0.76 0.42 0.79 0.44 0.79 0.27z m30.43 -1.23 c0 -0.07 -0.44 0.10 -0.98 0.37 -0.54 0.27 -0.98 0.56 -0.98 0.61 0 0.07 0.44 -0.10 0.98 -0.37 0.54 -0.27 0.98 -0.56 0.98 -0.61z m-35.34 -1.35 c-0.47 -0.27 -0.96 -0.47 -1.10 -0.47 -0.12 0 0.15 0.20 0.61 0.47 0.47 0.27 0.98 0.47 1.10 0.47 0.15 0 -0.15 -0.20 -0.61 -0.47z m39.76 -0.61 c0.34 -0.20 0.52 -0.34 0.37 -0.34 -0.12 0 -0.52 0.15 -0.86 0.34 -0.34 0.20 -0.49 0.34 -0.37 0.34 0.15 0 0.52 -0.15 0.86 -0.34z m-41.72 -0.22 c0 -0.15 -2.28 -0.91 -2.38 -0.79 -0.05 0.05 0.37 0.27 0.96 0.47 1.15 0.42 1.42 0.47 1.42 0.32z m43.93 -0.69 c0.25 -0.15 0.17 -0.17 -0.25 -0.05 -0.34 0.07 -0.79 0.27 -0.98 0.39 -0.25 0.15 -0.17 0.17 0.25 0.05 0.34 -0.07 0.79 -0.27 0.98 -0.39z m-22.60 -5.40 c0.29 -0.39 0.25 -0.44 -0.47 -0.44 -0.79 0 -0.81 0 -0.37 0.49 0.25 0.27 0.47 0.47 0.47 0.44 0.02 -0.05 0.20 -0.27 0.37 -0.49z m-43.51 -1.96 l0.71 -0.81 -0.79 0.71 c-0.76 0.69 -0.93 0.88 -0.74 0.88 0.05 0 0.39 -0.37 0.81 -0.79z m100.22 -0.44 c0.47 -0.27 0.76 -0.47 0.61 -0.47 -0.12 0 -0.64 0.20 -1.10 0.47 -0.47 0.27 -0.74 0.47 -0.61 0.47 0.15 0 0.64 -0.20 1.10 -0.47z m-98.41 -1.60 c0.47 -0.47 0.79 -0.86 0.71 -0.86 -0.07 0 -0.49 0.39 -0.96 0.86 -0.47 0.47 -0.79 0.86 -0.71 0.86 0.07 0 0.49 -0.39 0.96 -0.86z m-19.39 -0.10 c-0.20 -0.12 -0.64 -0.27 -0.98 -0.37 -0.52 -0.12 -0.49 -0.07 0.12 0.22 0.79 0.37 1.47 0.49 0.86 0.15z m89.82 -8.61 c-0.47 -0.27 -0.96 -0.47 -1.10 -0.47 -0.12 0 0.15 0.20 0.61 0.47 0.47 0.27 0.98 0.47 1.10 0.47 0.15 0 -0.15 -0.20 -0.61 -0.47z m-56.69 -0.61 c0.61 -0.32 1.01 -0.59 0.86 -0.59 -0.12 0 -0.74 0.27 -1.35 0.59 -0.61 0.32 -0.98 0.59 -0.86 0.59 0.15 0 0.74 -0.27 1.35 -0.59z m54.23 -0.49 c-0.34 -0.20 -0.71 -0.34 -0.86 -0.34 -0.12 0 0.02 0.15 0.37 0.34 0.34 0.20 0.74 0.34 0.86 0.34 0.15 0 -0.02 -0.15 -0.37 -0.34z m-51.02 -0.88 c1.13 -0.49 2.40 -0.83 3.39 -0.91 l1.57 -0.12 -1.57 -0.81 c-0.86 -0.44 -1.64 -0.81 -1.74 -0.83 -0.12 0 -0.20 0.44 -0.20 0.98 0 0.61 -0.12 0.98 -0.29 0.98 -0.37 0.02 -3.36 1.42 -3.12 1.45 0.10 0.02 0.98 -0.32 1.96 -0.74z m49.30 0.15 c-0.34 -0.20 -0.71 -0.34 -0.86 -0.34 -0.12 0 0.02 0.15 0.37 0.34 0.34 0.20 0.74 0.34 0.86 0.34 0.15 0 -0.02 -0.15 -0.37 -0.34z m-33.82 -26.43 c0.83 -1.79 2.43 -3.53 3.58 -3.90 0.49 -0.15 1.08 -0.42 1.28 -0.59 1.01 -0.83 4.96 -1.10 7.14 -0.47 2.67 0.79 4.29 2.21 5.57 4.96 l0.66 1.40 0.07 12.10 c0.05 6.63 0.17 12.07 0.27 12.07 0.12 0 0.49 -0.22 0.83 -0.49 0.34 -0.27 0.71 -0.49 0.86 -0.49 0.12 0 0.42 -0.22 0.66 -0.49 0.25 -0.27 0.54 -0.49 0.66 -0.49 0.12 0 0.69 -0.32 1.25 -0.71 0.88 -0.59 6.60 -3.46 6.94 -3.46 0.05 0 0.49 -0.25 0.96 -0.54 l0.86 -0.56 0 -7.36 c0 -6.87 0.05 -7.44 0.52 -8.47 1.08 -2.38 2.58 -3.19 6.26 -3.36 2.16 -0.12 2.58 -0.07 3.46 0.37 1.13 0.59 2.11 1.67 2.70 2.97 0.34 0.71 0.44 1.91 0.52 6.36 0.07 4.96 0.12 5.45 0.49 5.35 0.25 -0.07 1.42 -0.34 2.67 -0.61 1.23 -0.25 2.38 -0.54 2.50 -0.64 0.20 -0.10 0.27 -3.44 0.27 -10.41 l0 -10.28 -6.18 -4.42 c-5.33 -3.80 -6.26 -4.39 -6.63 -4.15 -0.25 0.17 -2.43 1.77 -4.88 3.56 -3.80 2.77 -4.56 3.24 -5.33 3.24 -0.76 -0.02 -1.50 -0.47 -4.71 -2.87 -9.03 -6.77 -14.53 -10.65 -14.80 -10.43 -13.18 9.82 -18.11 13.30 -18.82 13.30 -0.59 0 -1.79 -0.74 -5.50 -3.44 -2.63 -1.87 -4.86 -3.46 -5.01 -3.48 -0.12 -0.05 -3.02 1.91 -6.41 4.34 l-6.16 4.39 0.05 10.31 0.07 10.31 2.58 0.54 c1.42 0.32 2.72 0.56 2.90 0.56 0.22 0.02 0.29 -1.18 0.29 -5.18 0 -4.98 0.02 -5.28 0.59 -6.48 0.54 -1.15 1.62 -2.31 2.16 -2.31 0.15 0 0.52 -0.22 0.86 -0.49 0.54 -0.42 1.01 -0.49 3.09 -0.49 2.87 0 4.10 0.44 5.33 1.91 1.35 1.62 1.47 2.58 1.47 10.43 l0 7.09 1.06 0.39 c2.09 0.79 7.21 3.51 9.62 5.06 l2.45 1.60 0.12 -12.07 0.12 -12.07 0.66 -1.40z m31.61 24.76 c0 -0.44 0.15 -0.96 0.32 -1.13 0.15 -0.17 -0.56 0.10 -1.62 0.64 l-1.94 0.93 1.45 0.15 c0.79 0.07 1.50 0.15 1.62 0.17 0.10 0.02 0.17 -0.32 0.17 -0.76z m-49.57 -2.85 c-0.20 -0.12 -0.64 -0.27 -0.98 -0.37 -0.52 -0.12 -0.49 -0.07 0.12 0.22 0.79 0.37 1.47 0.49 0.86 0.15z m-1.72 -0.61 c0 -0.15 -2.97 -1.13 -3.29 -1.10 -0.15 0 0.44 0.27 1.33 0.59 1.67 0.61 1.96 0.69 1.96 0.52z m111.41 -15.68 c0.93 -0.25 2.14 -1.06 2.60 -1.77 0.39 -0.59 0.39 -0.71 0.02 -1.47 -0.83 -1.74 -2.31 -1.96 -3.51 -0.54 -0.44 0.52 -0.56 0.88 -0.47 1.25 0.37 1.10 0.42 2.63 0.10 3.04 -0.32 0.39 -0.29 0.39 0.15 0.02 0.27 -0.22 0.76 -0.47 1.10 -0.54z m-164.86 -0.42 c-0.05 -0.39 0.02 -1.06 0.17 -1.50 0.20 -0.59 0.17 -0.91 -0.10 -1.47 -0.34 -0.64 -1.47 -1.45 -2.06 -1.45 -0.49 0 -1.99 1.67 -1.99 2.21 0 0.86 1.47 2.16 2.67 2.36 0.56 0.10 1.08 0.27 1.15 0.37 0.22 0.37 0.27 0.25 0.15 -0.52z m72.62 -26.68 c0.20 -0.22 1.30 -1.10 2.50 -1.96 l2.14 -1.60 0 -5.69 c0 -3.36 0.10 -6.01 0.27 -6.45 0.15 -0.42 0.74 -1.10 1.40 -1.57 1.08 -0.79 1.28 -0.83 3.17 -0.83 2.16 0 2.80 0.27 3.85 1.69 0.49 0.61 0.52 1.10 0.64 6.77 l0.12 6.11 2.70 1.99 2.70 1.96 0.07 -11.41 0.05 -11.44 0.64 -0.22 c0.34 -0.15 0.91 -0.25 1.23 -0.25 0.52 0 0.61 -0.10 0.54 -0.54 -0.07 -0.52 -0.22 -0.56 -1.84 -0.64 l-1.74 -0.07 -2.06 -2.50 c-1.13 -1.37 -3.14 -3.80 -4.44 -5.40 l-2.38 -2.90 0 -3.04 c0 -1.89 -0.10 -3.07 -0.25 -3.07 -0.15 0 -0.25 1.18 -0.25 3.07 l0 3.07 -3.88 4.74 c-2.14 2.58 -4.10 5.01 -4.34 5.37 -0.47 0.61 -0.61 0.66 -2.26 0.69 -1.74 0 -1.79 0.02 -1.79 0.61 0 0.54 0.10 0.61 0.96 0.61 l0.93 0 0.17 3.75 c0.10 2.04 0.17 4.52 0.15 5.45 -0.02 0.96 -0.02 4.52 -0.02 7.93 0.02 5.08 0.07 6.18 0.37 6.18 0.17 0 0.49 -0.17 0.66 -0.42z"/>
  <path d="M60.98 193.99 c-1.33 -0.69 -1.60 -1.23 -1.60 -3.19 0 -1.69 0.05 -1.84 0.76 -2.43 0.66 -0.56 0.98 -0.64 2.50 -0.64 0.98 0 2.85 -0.07 4.17 -0.17 l2.38 -0.15 0 1.89 c0 2.60 -0.71 3.83 -2.75 4.69 -1.23 0.49 -4.49 0.49 -5.47 0z"/>
  <path d="M151 192.96 c-1.28 -0.44 -2.82 -2.11 -3.21 -3.46 -0.17 -0.54 -0.29 -2.01 -0.29 -3.26 0 -2.67 0.59 -4.29 1.94 -5.45 1.08 -0.88 1.69 -1.03 4.59 -1.03 2.26 0 2.55 0.05 3.46 0.66 0.69 0.47 1.23 1.10 1.72 2.09 0.61 1.28 0.69 1.67 0.69 3.88 0 2.14 -0.10 2.63 -0.64 3.83 -0.69 1.45 -1.74 2.40 -3.14 2.90 -1.15 0.37 -3.85 0.32 -5.10 -0.15z"/>
 </g>
 <g fill="#023b73">
  <path d="M181.55 219.07 c-0.47 -0.17 -0.69 -0.44 -0.69 -0.81 0 -0.61 0.83 -0.93 1.50 -0.56 0.66 0.34 2.26 0.27 2.85 -0.15 0.27 -0.20 0.56 -0.56 0.64 -0.83 0.12 -0.47 0 -0.49 -1.69 -0.44 -1.79 0.05 -1.82 0.02 -2.72 -0.86 -0.79 -0.81 -0.91 -1.08 -1.01 -2.33 -0.07 -1.18 0 -1.57 0.49 -2.26 1.06 -1.57 3.09 -2.21 4.32 -1.35 0.52 0.34 0.61 0.34 1.18 -0.02 0.34 -0.22 0.81 -0.34 1.01 -0.27 0.32 0.15 0.37 0.69 0.27 4.02 -0.12 4.27 -0.37 5.15 -1.67 5.82 -0.83 0.42 -3.44 0.47 -4.47 0.05z m3.75 -4.81 c1.55 -1.55 0.32 -4.05 -1.77 -3.58 -0.88 0.20 -1.45 0.98 -1.45 2.04 0 1.03 0.37 1.74 1.06 2.01 0.93 0.37 1.42 0.27 2.16 -0.47z"/>
  <path d="M53.62 216.77 c-1.55 -0.39 -2.60 -1.89 -2.63 -3.73 0 -1.72 0.64 -2.77 2.18 -3.63 1.96 -1.10 4.74 0.83 4.74 3.31 l0 0.79 -2.45 0 c-1.99 0 -2.50 0.07 -2.63 0.37 -0.39 1.06 1.89 1.99 3.02 1.23 0.49 -0.32 0.69 -0.34 0.98 -0.10 1.28 1.06 -1.01 2.31 -3.21 1.77z m2.45 -5.23 c-0.29 -0.56 -0.54 -0.74 -1.10 -0.74 -1.01 0 -1.89 0.39 -2.21 0.98 -0.25 0.47 -0.20 0.49 1.72 0.49 l1.99 0 -0.39 -0.74z"/>
  <path d="M94.36 216.72 c-0.98 -0.25 -1.84 -0.71 -1.84 -1.03 0 -0.44 1.28 -0.76 1.91 -0.49 0.79 0.37 1.89 0.34 2.23 -0.07 0.49 -0.59 0.02 -1.10 -1.35 -1.50 -1.18 -0.34 -1.33 -0.47 -1.33 -1.03 0 -0.61 0.02 -0.64 1.20 -0.49 2.38 0.29 3.73 1.47 3.31 2.94 -0.44 1.47 -2.11 2.16 -4.15 1.67z"/>
  <path d="M206.39 216.62 c-0.59 -0.20 -0.88 -0.47 -0.93 -0.83 -0.05 -0.32 0.05 -0.56 0.22 -0.56 0.20 0 0.15 -0.15 -0.10 -0.44 -0.56 -0.61 -0.52 -1.35 0.07 -1.89 0.37 -0.34 0.71 -0.39 1.60 -0.27 1.30 0.20 1.47 0.71 0.32 1.03 -1.40 0.42 -1.10 1.82 0.37 1.82 0.42 0 0.98 -0.22 1.28 -0.49 0.39 -0.37 0.66 -0.44 1.23 -0.29 0.64 0.17 0.74 0.34 0.81 1.13 l0.07 0.91 -1.30 -0.05 c-0.71 -0.02 -1.62 0.02 -2.04 0.10 -0.39 0.10 -1.13 0.02 -1.60 -0.15z"/>
  <path d="M47.95 216.42 c-0.07 -0.15 -0.07 -1.18 0.02 -2.28 0.15 -1.82 0.10 -2.06 -0.37 -2.67 -0.54 -0.66 -1.23 -0.81 -2.38 -0.52 -0.74 0.20 -1.15 1.35 -0.98 2.80 l0.15 1.23 -0.81 0 c-0.93 0 -1.13 -0.37 -1.13 -2.09 0 -2.70 2.58 -4.56 4.76 -3.44 0.88 0.47 0.88 0.47 0.88 -0.12 0 -0.27 0.17 -0.49 0.37 -0.49 0.29 0 0.37 -0.32 0.37 -1.37 0 -1.15 0.07 -1.35 0.44 -1.28 0.39 0.07 0.42 0.52 0.42 5.30 l0 5.20 -0.79 0 c-0.42 0 -0.86 -0.12 -0.96 -0.27z"/>
  <path d="M59.14 213.77 c0 -3.75 0.12 -4.37 0.91 -4.52 0.44 -0.07 0.66 0.02 0.79 0.37 0.15 0.44 0.20 0.44 0.49 0.10 0.22 -0.27 0.74 -0.39 1.50 -0.39 1.82 0 1.96 0.12 1.96 1.50 0 0.66 -0.07 1.20 -0.15 1.20 -0.07 0 -0.37 -0.27 -0.64 -0.61 -0.32 -0.42 -0.71 -0.61 -1.25 -0.61 -1.52 0 -1.89 0.74 -1.89 3.66 l0 2.23 -0.86 0 -0.86 0 0 -2.92z"/>
  <path d="M112.81 216.52 c-0.27 -0.27 -0.20 -1.03 0.20 -1.79 0.22 -0.44 0.27 -0.76 0.12 -0.86 -0.15 -0.07 -0.25 -0.86 -0.25 -1.74 l0 -1.57 0.74 0 0.74 0 0 3.07 0 3.07 -0.69 0 c-0.39 0 -0.79 -0.07 -0.86 -0.17z"/>
  <path d="M116.27 213.01 l-0.07 -3.68 0.81 0 c0.54 0 0.79 0.12 0.79 0.37 0 0.47 0.22 0.47 0.74 0 0.22 -0.20 0.66 -0.39 1.01 -0.42 0.52 -0.07 0.59 0.05 0.66 0.74 0.07 0.64 0 0.79 -0.42 0.79 -0.27 0 -0.79 0.25 -1.13 0.56 -0.59 0.49 -0.66 0.74 -0.79 2.94 l-0.15 2.38 -0.69 0 -0.69 0 -0.07 -3.68z"/>
  <path d="M152.64 214.14 c0 -2.90 -0.22 -3.34 -1.57 -3.34 -0.86 0 -1.62 0.61 -1.62 1.30 0 0.25 -0.20 0.42 -0.49 0.42 -0.44 0 -0.49 -0.17 -0.49 -1.50 0 -0.98 0.12 -1.60 0.37 -1.84 0.32 -0.34 0.37 -0.32 0.37 0.12 0 0.61 0 0.61 0.88 0.15 1.33 -0.69 3.19 -0.25 3.80 0.88 0.15 0.29 0.32 1.84 0.39 3.44 l0.15 2.92 -0.91 0 -0.88 0 0 -2.55z"/>
  <path d="M168.59 215.64 c0 -0.59 0.07 -2.26 0.17 -3.68 l0.15 -2.63 0.71 0 0.69 0 0 3.68 0 3.68 -0.86 0 c-0.86 0 -0.86 0 -0.86 -1.06z"/>
  <path d="M172.27 214.61 l0 -2.09 0.86 0 0.86 0 0 2.09 0 2.09 -0.86 0 -0.86 0 0 -2.09z"/>
  <path d="M240.50 214.21 c0 -3.02 -0.17 -3.41 -1.50 -3.41 -0.83 0 -1.03 0.10 -1.40 0.74 -0.22 0.39 -0.54 0.74 -0.71 0.74 -0.32 0 -0.69 -1.99 -0.47 -2.58 0.17 -0.49 0.88 -0.47 0.88 0.02 0 0.32 0.12 0.29 0.64 -0.12 0.91 -0.71 2.31 -0.69 3.24 0.10 0.71 0.59 0.71 0.59 1.15 0.12 0.34 -0.39 0.76 -0.49 2.01 -0.49 l1.55 0 0 0.81 c0 1.25 -0.32 1.57 -0.96 0.93 -0.69 -0.69 -1.37 -0.66 -2.11 0.10 -0.56 0.54 -0.61 0.76 -0.61 3.07 l0 2.45 -0.86 0 -0.86 0 0 -2.48z"/>
  <path d="M35.12 215.81 c-0.44 -0.54 -0.52 -1.01 -0.52 -2.80 0 -2.48 0.32 -3.68 1.01 -3.68 0.42 0 0.47 0.20 0.47 2.18 0 2.48 0.27 3.44 0.98 3.63 0.32 0.07 0.49 0.34 0.49 0.71 0 0.52 -0.12 0.59 -0.96 0.59 -0.76 0 -1.08 -0.15 -1.47 -0.64z"/>
  <path d="M178.16 215.34 c0 -0.20 -0.17 -0.37 -0.37 -0.37 -0.29 0 -0.37 -0.32 -0.37 -1.40 0 -0.79 -0.15 -1.69 -0.32 -2.04 -0.59 -1.18 -2.72 -0.83 -3.17 0.52 -0.05 0.17 -0.27 0.25 -0.52 0.15 -0.32 -0.12 -0.42 -0.47 -0.42 -1.52 0 -1.18 0.05 -1.35 0.49 -1.35 0.29 0 0.49 0.17 0.49 0.39 0 0.32 0.12 0.29 0.64 -0.12 0.74 -0.56 1.96 -0.66 2.90 -0.22 1.13 0.49 1.47 1.35 1.57 3.95 0.10 2.28 0.10 2.38 -0.42 2.38 -0.29 0 -0.52 -0.15 -0.52 -0.37z"/>
  <path d="M76.32 213.26 l0 -1.96 0.86 0 c0.59 0 0.86 0.12 0.86 0.37 0 0.20 0.27 0.42 0.61 0.52 0.83 0.20 0.86 1.35 0.07 1.69 -0.32 0.15 -0.59 0.49 -0.64 0.81 -0.07 0.44 -0.25 0.54 -0.93 0.54 l-0.83 0 0 -1.96z"/>
  <path d="M160.18 214.46 c0.10 -0.34 0 -0.64 -0.27 -0.86 -0.44 -0.32 -0.34 -1.33 0.12 -1.33 0.42 0 0.22 -0.81 -0.32 -1.40 -0.47 -0.49 -0.49 -0.61 -0.20 -0.81 0.20 -0.12 0.69 -0.25 1.06 -0.25 0.96 0 1.45 1.20 1.35 3.39 l-0.07 1.64 -0.91 0.07 c-0.81 0.07 -0.88 0.02 -0.76 -0.47z"/>
  <path d="M85.47 214.36 c-0.17 -0.20 -0.32 -0.86 -0.32 -1.47 0 -1.06 0.02 -1.10 0.74 -1.10 0.42 0 0.74 0.10 0.74 0.22 0 0.29 2.28 0.56 3.07 0.37 0.49 -0.12 0.61 -0.27 0.54 -0.64 -0.12 -0.39 -0.02 -0.47 0.64 -0.39 0.74 0.07 0.79 0.15 0.86 1.13 l0.07 1.03 -2.43 0 c-1.33 0 -2.50 0.07 -2.58 0.15 -0.07 0.10 -0.05 0.37 0.10 0.61 0.20 0.42 0.15 0.47 -0.44 0.47 -0.37 -0.02 -0.83 -0.17 -0.98 -0.37z"/>
  <path d="M39.36 214.09 c0.07 -0.22 0.15 -1.37 0.15 -2.58 l0 -2.18 0.86 0 0.86 0 0 2.18 c0 2.77 -0.07 2.97 -1.15 2.97 -0.69 0 -0.83 -0.07 -0.71 -0.39z"/>
  <path d="M221.97 213.67 c-0.52 -2.65 1.91 -5.01 4.61 -4.49 1.18 0.22 1.99 0.93 1.79 1.57 -0.22 0.71 -0.86 0.88 -1.42 0.37 -0.66 -0.59 -2.06 -0.54 -2.72 0.12 -0.42 0.42 -0.54 0.83 -0.54 1.77 0 1.01 -0.07 1.23 -0.49 1.33 -0.91 0.25 -1.08 0.15 -1.23 -0.66z"/>
  <path d="M107.73 211.05 c0 -1.55 0.05 -1.72 0.49 -1.72 0.44 0 0.49 0.17 0.49 1.72 0 1.55 -0.05 1.72 -0.49 1.72 -0.44 0 -0.49 -0.17 -0.49 -1.72z"/>
  <path d="M164.35 212.35 c-0.22 -0.20 -0.22 -1.25 -0.02 -2.26 0.17 -0.76 0.83 -1.08 0.83 -0.39 0 0.47 0.22 0.47 0.79 -0.05 0.27 -0.22 0.44 -0.27 0.44 -0.12 0 0.17 0.27 0.29 0.61 0.29 0.93 0 0.83 0.88 -0.12 1.08 -0.49 0.07 -0.91 0.39 -1.18 0.88 -0.39 0.69 -0.98 0.93 -1.35 0.56z"/>
  <path d="M230.93 211.32 c0 -0.66 0.07 -1.37 0.15 -1.60 0.20 -0.49 1.08 -0.52 1.08 -0.02 0 0.42 0.39 0.49 0.61 0.12 0.20 -0.29 1.35 0.22 1.35 0.64 0 0.15 -0.29 0.37 -0.64 0.44 -0.39 0.10 -0.74 0.44 -0.91 0.88 -0.22 0.56 -0.44 0.74 -0.96 0.74 -0.66 0 -0.69 -0.05 -0.69 -1.20z"/>
  <path d="M121.79 211.15 c0.05 -0.61 0.25 -1.25 0.39 -1.40 0.15 -0.15 1.06 -0.32 1.99 -0.37 2.43 -0.15 3.66 0.71 2.53 1.74 -0.39 0.32 -0.49 0.34 -0.91 0.02 -0.71 -0.52 -2.26 -0.44 -2.85 0.15 -0.27 0.27 -0.49 0.61 -0.49 0.74 0 0.15 -0.17 0.25 -0.39 0.25 -0.34 0 -0.39 -0.20 -0.27 -1.13z"/>
  <path d="M67.98 211.17 c0 -0.20 -0.22 -0.37 -0.49 -0.37 -0.39 0 -0.49 -0.17 -0.49 -0.74 0 -0.56 0.10 -0.74 0.49 -0.74 0.27 0 0.49 -0.17 0.49 -0.39 0 -0.20 0.12 -0.29 0.25 -0.22 0.15 0.07 0.25 0.37 0.25 0.64 0 0.25 0.12 0.47 0.25 0.47 0.15 0 0.25 0.39 0.25 0.86 0 0.69 -0.10 0.86 -0.49 0.86 -0.27 0 -0.49 -0.17 -0.49 -0.37z"/>
  <path d="M93.25 210.85 c0 -0.39 0.22 -0.91 0.49 -1.15 0.98 -0.91 4.42 -0.66 4.42 0.32 0 0.86 -0.39 1.15 -1.10 0.83 -0.98 -0.44 -2.04 -0.37 -2.38 0.20 -0.17 0.27 -0.56 0.49 -0.86 0.49 -0.47 0 -0.56 -0.15 -0.56 -0.69z"/>
  <path d="M213.26 211.17 c0 -0.20 -0.22 -0.37 -0.49 -0.37 -0.39 0 -0.49 -0.17 -0.49 -0.74 0 -0.56 0.12 -0.74 0.47 -0.74 0.27 0 0.54 -0.20 0.59 -0.42 0.10 -0.34 0.12 -0.32 0.15 0.10 0 0.29 0.15 0.61 0.27 0.69 0.42 0.25 0.29 1.84 -0.12 1.84 -0.20 0 -0.37 -0.17 -0.37 -0.37z"/>
  <path d="M205.82 210.90 c-0.10 -0.10 -0.17 -0.42 -0.17 -0.74 0 -0.64 1.01 -1.08 2.45 -1.08 0.98 0 1.23 0.27 1.23 1.37 0 0.54 -0.05 0.56 -0.52 0.32 -0.47 -0.25 -1.67 -0.17 -2.53 0.17 -0.17 0.05 -0.37 0.02 -0.47 -0.05z"/>
  <path d="M219.15 208.35 c0 -1.13 0.91 -2.21 1.82 -2.21 1.10 0 1.47 0.32 1.28 1.06 -0.12 0.52 -0.32 0.64 -1.08 0.71 -0.74 0.05 -0.93 0.17 -0.98 0.64 -0.05 0.34 -0.25 0.54 -0.56 0.54 -0.37 0 -0.47 -0.17 -0.47 -0.74z"/>
  <path d="M193.26 198.61 c-3.98 -0.52 -7.48 -2.82 -9.03 -5.89 -1.50 -2.92 -1.52 -3.21 -1.52 -14.31 l0 -10.18 2.77 -0.07 2.75 -0.07 0 9.18 c0 9.52 0.15 11.26 1.03 13.06 0.69 1.37 1.35 2.04 2.77 2.77 2.60 1.33 6.72 0.59 8.29 -1.47 1.45 -1.89 1.47 -2.09 1.60 -13.37 l0.10 -10.38 2.67 0 2.67 0 0.02 8.42 c0.05 13.25 -0.02 14.09 -1.45 16.71 -0.69 1.30 -3.53 4.32 -4.05 4.32 -0.17 0 -0.59 0.20 -0.91 0.44 -0.34 0.22 -1.10 0.54 -1.72 0.71 -1.03 0.27 -4.39 0.37 -6.01 0.15z"/>
  <path d="M59.41 198.16 c-4 -1.13 -6.01 -3.61 -5.96 -7.34 0.02 -1.79 0.93 -3.75 2.21 -4.81 0.49 -0.42 1.69 -1.01 2.63 -1.30 1.50 -0.47 2.26 -0.54 5.96 -0.54 4.07 0 4.22 -0.02 4.22 -0.49 0 -1.01 -1.08 -2.65 -2.06 -3.17 -1.99 -1.01 -5.35 -0.74 -7.90 0.59 -0.76 0.42 -1.52 0.74 -1.72 0.74 -0.27 0 -2.26 -3.39 -2.50 -4.32 -0.07 -0.32 2.36 -1.64 4.29 -2.33 1.06 -0.37 2.31 -0.54 4.88 -0.64 3.07 -0.12 3.66 -0.07 5.15 0.37 3.07 0.93 4.59 2.23 5.84 4.96 0.88 1.91 1.13 4.59 1.13 11.83 l0 6.33 -0.54 0.12 c-0.32 0.07 -1.77 0.12 -3.26 0.07 l-2.70 -0.07 -0.07 -0.79 c-0.07 -0.66 -0.20 -0.81 -0.66 -0.81 -0.32 0 -0.66 0.12 -0.74 0.25 -0.10 0.15 -0.59 0.54 -1.13 0.86 -1.25 0.81 -5.03 1.06 -7.07 0.49z m6.31 -4.91 c1.82 -0.76 2.75 -2.11 2.75 -3.95 l0 -1.15 -1.28 0.17 c-0.71 0.07 -2.26 0.15 -3.44 0.15 -1.91 0 -2.18 0.05 -2.87 0.64 -0.64 0.52 -0.76 0.81 -0.76 1.69 0 1.18 0.44 1.87 1.60 2.45 0.96 0.47 2.85 0.47 4 0z"/>
  <path d="M150.51 198.19 c-3.58 -0.91 -6.50 -3.24 -8.05 -6.38 -3.34 -6.82 0.25 -15.09 7.36 -16.96 2.18 -0.56 6.55 -0.49 8.34 0.12 7.04 2.43 10.09 10.65 6.45 17.50 -0.81 1.52 -4.39 5.08 -5.10 5.08 -0.22 0 -0.61 0.17 -0.91 0.37 -0.76 0.54 -6.36 0.74 -8.10 0.27z m4.86 -5.82 c3.31 -1.13 4.81 -5.57 3.07 -9.13 -0.98 -2.04 -2.14 -2.75 -4.42 -2.75 -2.18 0.02 -2.85 0.20 -3.85 1.03 -1.69 1.42 -2.43 4.66 -1.64 7.24 0.83 2.77 4.12 4.52 6.85 3.61z"/>
  <path d="M21.23 197.99 c-0.07 -0.17 -0.10 -6.99 -0.07 -15.17 l0.07 -14.85 3.51 -0.07 3.48 -0.07 0 5.91 0 5.89 6.58 -0.05 6.55 -0.07 0.07 -5.69 c0.07 -6.70 -0.42 -6.01 4.10 -5.91 l2.94 0.07 0.07 14.95 c0.05 11.80 0 14.99 -0.25 15.17 -0.17 0.10 -1.79 0.20 -3.56 0.20 l-3.26 0 -0.05 -6.31 -0.07 -6.33 -5.03 -0.07 c-2.77 -0.02 -5.69 0.02 -6.50 0.12 l-1.47 0.20 -0.12 6.14 -0.12 6.14 -3.39 0.07 c-2.55 0.05 -3.41 -0.02 -3.48 -0.25z"/>
  <path d="M81.16 198.11 c-0.10 -0.07 -0.17 -5.37 -0.17 -11.78 l0 -11.61 3.31 0 3.31 0 0 1.33 0 1.30 0.83 -0.79 c1.47 -1.40 2.90 -1.89 5.82 -2.04 3.46 -0.15 4.69 0.25 6.65 2.14 l1.42 1.40 1.01 -1.03 c0.54 -0.56 1.62 -1.33 2.38 -1.72 1.20 -0.59 1.74 -0.71 4.05 -0.79 3.09 -0.12 4.34 0.15 5.96 1.30 1.52 1.10 2.65 2.75 3.19 4.74 0.42 1.45 0.47 2.60 0.47 9.62 l0 7.98 -3.44 0 -3.44 0 -0.12 -7.48 c-0.12 -6.92 -0.17 -7.56 -0.61 -8.32 -0.83 -1.40 -1.64 -1.84 -3.31 -1.82 -0.81 0.02 -1.72 0.17 -2.01 0.34 -0.71 0.37 -1.87 1.42 -2.23 2.06 -0.20 0.32 -0.34 2.92 -0.42 7.85 l-0.12 7.36 -3.44 0 -3.44 0 -0.12 -7.48 c-0.12 -8.15 -0.17 -8.42 -1.62 -9.55 -0.52 -0.42 -1.01 -0.52 -2.31 -0.52 -1.40 0 -1.79 0.10 -2.75 0.74 -1.84 1.23 -1.91 1.57 -1.91 9.67 0 6.14 -0.05 6.99 -0.39 7.12 -0.52 0.20 -6.36 0.20 -6.55 -0.02z"/>
  <path d="M125.16 186.51 l0 -11.78 3.17 0 c3.36 0 3.58 0.07 3.29 1.20 -0.07 0.27 -0.05 0.81 0.05 1.18 0.15 0.66 0.17 0.66 0.52 0.22 0.20 -0.27 0.34 -0.42 0.34 -0.34 0 0.10 0.32 -0.17 0.71 -0.56 0.52 -0.52 0.96 -0.71 1.60 -0.71 0.47 0 1.01 -0.17 1.23 -0.37 0.52 -0.54 3.24 -0.52 3.44 0.02 0.07 0.22 0.15 1.47 0.15 2.77 l0 2.40 -1.84 0.15 c-1.03 0.10 -2.11 0.29 -2.40 0.44 -1.18 0.64 -2.18 1.57 -2.70 2.53 -0.52 0.96 -0.54 1.37 -0.61 7.83 l-0.07 6.80 -3.44 0 -3.41 0 0 -11.78z"/>
  <path d="M213.99 186.51 l0 -11.78 2.82 0 2.82 0 0 1.50 0 1.50 0.98 -0.86 c1.79 -1.64 2.75 -1.99 5.82 -2.09 3.63 -0.12 4.83 0.25 6.72 2.14 0.93 0.96 1.55 1.84 1.96 2.85 0.56 1.45 0.59 1.69 0.66 10.01 l0.07 8.52 -2.94 0 -2.92 0 -0.10 -7.29 c-0.10 -7.85 -0.17 -8.42 -1.50 -9.87 -1.57 -1.69 -5.06 -1.69 -6.72 0.02 -1.57 1.62 -1.64 2.04 -1.74 9.96 l-0.10 7.17 -2.92 0 -2.92 0 0 -11.78z"/>
  <path d="M241.48 186.51 l0 -11.78 2.65 0 2.67 0 0.17 11.53 c0.10 6.33 0.12 11.63 0.02 11.78 -0.10 0.15 -1.28 0.25 -2.85 0.25 l-2.67 0 0 -11.78z"/>
  <path d="M242.53 171.54 c-1.55 -0.93 -1.99 -2.94 -0.98 -4.44 1.42 -2.16 4.27 -2.16 5.62 -0.02 0.39 0.64 0.47 1.08 0.37 2.09 -0.10 1.03 -0.25 1.37 -1.01 2.06 -0.74 0.69 -1.06 0.81 -2.04 0.81 -0.74 0 -1.47 -0.17 -1.96 -0.49z"/>
  <path d="M131.10 155.32 c-3.36 -0.56 -6.85 -2.38 -9.08 -4.71 -1.30 -1.40 -2.94 -3.78 -3.48 -5.06 -0.25 -0.59 -0.86 -1.03 -3.04 -2.21 -7.17 -3.80 -16.47 -7.75 -23.93 -10.18 -4.56 -1.50 -4.76 -1.50 -5.03 -0.12 -0.12 0.59 0 0.93 0.44 1.47 1.15 1.37 1.10 2.97 -0.12 4.47 -0.59 0.71 -0.91 0.91 -1.52 0.88 -2.14 -0.02 -3.61 -1.35 -3.61 -3.26 0 -1.20 0.74 -2.53 1.57 -2.85 0.74 -0.27 0.81 -0.37 1.01 -1.74 l0.17 -1.13 -3.66 -0.88 c-11.93 -2.92 -22.95 -3.90 -34.14 -3.09 -1.99 0.15 -3.98 0.22 -4.39 0.17 l-0.76 -0.07 3.41 -8.22 c1.89 -4.52 4.12 -9.94 4.98 -12.02 0.86 -2.09 2.36 -5.72 3.34 -8.05 l1.74 -4.25 -1.91 -3.21 c-1.91 -3.21 -1.91 -3.21 -3.09 -3.51 -2.87 -0.74 -3.73 -3.73 -1.55 -5.40 2.48 -1.89 5.72 0.69 4.59 3.63 -0.22 0.56 0.44 1.94 2.60 5.30 l0.39 0.59 0.29 -0.59 c0.17 -0.32 1.20 -2.75 2.28 -5.37 1.08 -2.63 3.63 -8.69 5.67 -13.45 2.04 -4.76 3.71 -8.76 3.71 -8.88 0 -0.83 2.53 -1.33 8.05 -1.62 l3.24 -0.17 -0.76 1.82 c-0.42 1.01 -0.86 1.94 -0.98 2.09 -0.12 0.17 -1.18 0.37 -2.36 0.47 -1.18 0.10 -2.31 0.27 -2.50 0.37 -0.22 0.12 -0.56 0.27 -0.79 0.32 -0.39 0.12 -3.29 6.80 -7.29 16.86 -3.61 8.98 -3.31 8.15 -2.77 7.88 0.25 -0.15 1.82 -1.67 3.44 -3.39 2.01 -2.14 2.92 -3.26 2.82 -3.51 -0.10 -0.20 -0.22 -0.88 -0.27 -1.50 -0.15 -1.37 0.37 -2.50 1.47 -3.17 0.96 -0.59 2.80 -0.64 3.56 -0.10 0.64 0.44 0.47 0.71 3.80 -6.90 0.88 -2.01 2.90 -6.60 4.47 -10.18 1.55 -3.58 3.36 -7.71 4 -9.18 l1.15 -2.65 3.07 0.15 c8.74 0.49 16.22 2.23 22.70 5.28 2.55 1.23 8.22 4.54 8.52 5.03 0.10 0.15 0.20 0.83 0.20 1.55 0 1.18 -0.07 1.30 -0.96 2.01 l-0.96 0.76 -2.31 -1.47 c-3.29 -2.16 -8.52 -4.69 -12.02 -5.84 -5.99 -1.96 -14.87 -3.39 -15.24 -2.43 -0.39 0.98 -9.57 22.18 -10.21 23.58 -0.42 0.93 -0.71 1.74 -0.66 1.79 0.05 0.07 1.15 -0.12 2.45 -0.39 1.30 -0.29 2.40 -0.52 2.45 -0.52 0.07 0 0.32 -0.39 0.54 -0.88 0.69 -1.45 2.63 -1.99 4.05 -1.15 0.76 0.47 1.45 1.67 1.45 2.58 0 0.83 -0.83 2.09 -1.69 2.53 -0.42 0.20 -0.83 0.56 -0.96 0.81 -0.12 0.22 -0.66 2.65 -1.15 5.40 l-0.93 4.98 0.56 0.52 c0.29 0.27 0.69 0.86 0.86 1.28 0.32 0.76 0.39 0.79 3.04 1.23 3.93 0.61 11.17 2.38 14.99 3.66 9.33 3.12 17.30 7.58 23.31 13.08 1.99 1.82 4.86 4.83 5.94 6.23 l0.69 0.86 0.39 -0.59 c1.08 -1.52 4.64 -5.18 6.99 -7.17 6.26 -5.25 13.82 -9.42 22.26 -12.27 3.53 -1.20 10.50 -2.94 14.72 -3.71 l3.26 -0.56 0.49 -1.03 c0.27 -0.54 0.64 -1.08 0.83 -1.15 0.54 -0.20 0.47 -0.83 -0.61 -6.21 -0.74 -3.58 -1.10 -4.93 -1.42 -5.10 -0.22 -0.12 -0.76 -0.59 -1.20 -1.03 -0.69 -0.64 -0.81 -0.93 -0.81 -1.91 0 -0.93 0.12 -1.28 0.71 -1.87 0.64 -0.61 0.91 -0.71 2.11 -0.71 1.18 0 1.47 0.10 1.96 0.64 0.34 0.37 0.61 0.81 0.61 0.98 0 0.17 0.10 0.37 0.22 0.44 0.39 0.25 4.96 1.18 5.10 1.03 0.07 -0.07 -0.93 -2.53 -2.23 -5.47 -1.30 -2.94 -3.78 -8.66 -5.50 -12.71 -3.12 -7.34 -3.14 -7.36 -3.85 -7.34 -1.33 0.05 -5.40 0.54 -5.77 0.69 -0.20 0.10 -1.20 0.32 -2.21 0.49 -1.01 0.20 -2.90 0.64 -4.17 1.01 -1.28 0.34 -2.70 0.71 -3.14 0.79 -0.44 0.07 -0.86 0.22 -0.93 0.34 -0.07 0.12 -0.32 0.22 -0.56 0.22 -0.37 0 -3.63 1.52 -4.69 2.18 -0.20 0.12 -0.91 0.49 -1.60 0.79 -0.66 0.32 -2.18 1.23 -3.39 2.01 l-2.16 1.45 -0.91 -0.69 c-1.20 -0.91 -1.28 -1.01 -1.28 -2.38 l0 -1.15 2.28 -1.50 c8.25 -5.42 19.17 -8.71 29.57 -8.88 l2.77 -0.05 1.13 2.58 c0.61 1.42 3.31 7.61 6.01 13.74 2.70 6.14 5.08 11.53 5.25 11.98 0.34 0.79 0.37 0.79 1.08 0.42 0.39 -0.20 1.23 -0.37 1.87 -0.37 1.01 0 1.25 0.12 2.09 0.96 0.86 0.86 0.96 1.08 0.96 2.21 0 0.71 -0.12 1.50 -0.25 1.77 -0.22 0.39 0.05 0.81 1.94 2.85 3.02 3.31 4.44 4.66 4.44 4.22 0 -0.20 -1.77 -4.71 -3.90 -10.04 -5.25 -12.96 -5.91 -14.55 -6.26 -14.92 -0.17 -0.17 -1.35 -0.37 -2.97 -0.49 l-2.65 -0.17 -0.83 -1.94 c-0.44 -1.08 -0.74 -2.04 -0.64 -2.14 0.25 -0.22 5.84 0.17 8.52 0.59 l1.91 0.29 3.17 7.48 c1.74 4.12 4.39 10.41 5.89 13.99 1.50 3.58 2.87 6.75 3.02 7.07 0.29 0.56 0.39 0.47 1.96 -2.06 1.42 -2.31 1.62 -2.75 1.40 -3.24 -0.52 -1.08 -0.32 -2.43 0.42 -3.26 0.56 -0.61 0.93 -0.81 1.94 -0.88 1.45 -0.15 2.14 0.15 2.77 1.23 1.10 1.82 0.37 3.80 -1.77 4.69 -0.59 0.25 -1.23 0.52 -1.42 0.61 -0.47 0.25 -3.66 5.42 -3.68 5.96 0 0.25 0.86 2.55 1.94 5.15 4.10 10.01 10.31 25.15 10.80 26.31 0.29 0.66 0.47 1.25 0.42 1.33 -0.07 0.05 -1.64 -0.02 -3.51 -0.17 -6.31 -0.52 -12.15 -0.32 -22.28 0.74 -1.47 0.15 -2.80 0.37 -2.94 0.47 -0.12 0.10 -0.91 0.27 -1.72 0.37 -2.28 0.25 -7.09 1.15 -7.39 1.37 -0.15 0.12 -1.10 0.34 -2.16 0.49 -2.38 0.37 -2.90 0.74 -2.70 2.01 0.12 0.69 0.34 1.03 0.83 1.28 1.20 0.61 1.72 1.52 1.72 2.97 0 1.03 -0.12 1.45 -0.61 2.04 -2.23 2.63 -6.28 0.27 -5.15 -3.02 0.17 -0.52 0.52 -1.13 0.74 -1.37 0.29 -0.32 0.37 -0.66 0.25 -1.33 -0.10 -0.49 -0.22 -0.88 -0.25 -0.88 -0.22 0 -3.31 0.81 -4.29 1.10 -0.61 0.20 -1.84 0.59 -2.72 0.86 -0.88 0.27 -2.04 0.71 -2.58 0.98 -0.52 0.27 -1.15 0.49 -1.42 0.49 -0.27 0 -0.71 0.22 -1.01 0.49 -0.29 0.29 -0.98 0.56 -1.50 0.66 -0.52 0.07 -1.52 0.39 -2.21 0.71 -0.69 0.32 -1.37 0.59 -1.50 0.59 -0.52 0 -4.37 1.89 -4.71 2.28 -0.17 0.25 -0.54 0.42 -0.76 0.42 -0.64 0 -2.58 0.88 -3.51 1.57 -0.44 0.32 -1.50 0.88 -2.38 1.25 -2.33 0.98 -2.75 1.35 -3.80 3.48 -1.91 3.73 -6.65 7.66 -9.84 8.10 -0.61 0.07 -1.15 0.25 -1.23 0.34 -0.17 0.27 -4.96 0.25 -6.68 -0.05z m6.16 -5.50 c1.84 -0.47 3.14 -1.15 4.39 -2.28 1.28 -1.13 2.75 -3.39 3.26 -4.98 0.37 -1.10 0.56 -1.30 2.16 -2.23 0.98 -0.56 4.52 -2.38 7.90 -4.02 6.31 -3.09 12.66 -5.72 19.22 -7.98 2.18 -0.74 3.71 -1.37 3.66 -1.55 -0.07 -0.20 -1.79 -0.27 -5.72 -0.25 -4.81 0.02 -5.99 0.10 -8.07 0.56 -9.13 1.96 -17.67 6.45 -24.10 12.64 -1.13 1.06 -2.33 2.40 -2.70 2.99 -0.81 1.30 -1.91 1.69 -4 1.47 -1.13 -0.12 -1.45 -0.27 -1.96 -0.93 -1.15 -1.47 -4.29 -4.66 -5.89 -5.96 -5.79 -4.74 -13.87 -8.59 -21.37 -10.21 -2.23 -0.49 -3.26 -0.56 -8.17 -0.59 -3.98 0 -5.64 0.07 -5.72 0.27 -0.05 0.17 0.22 0.37 0.59 0.47 1.64 0.39 10.63 3.78 14.55 5.45 7.88 3.36 17.67 8.34 17.67 8.98 0 0.74 1.74 3.83 2.80 5.01 2.70 2.99 7.29 4.25 11.51 3.14z m0.07 -17.08 c6.11 -7.26 15.80 -13.77 26.85 -18.06 1.55 -0.59 2.92 -1.18 3.02 -1.28 0.32 -0.32 -11.39 -5.67 -12.39 -5.67 -0.69 0 -4.74 2.23 -7.44 4.12 -4.29 2.99 -8.49 6.87 -11.44 10.60 -0.83 1.08 -1.72 1.96 -1.91 1.96 -0.22 0 -1.06 -0.86 -1.87 -1.89 -4.05 -5.20 -10.33 -10.50 -16.39 -13.79 -2.23 -1.23 -2.48 -1.23 -5.79 0.15 -2.94 1.20 -9.01 4.12 -9.18 4.42 -0.10 0.15 0.32 0.39 0.88 0.54 1.79 0.54 6.21 2.40 9.28 3.95 6.63 3.31 12.32 7.39 17.28 12.37 1.89 1.91 3.98 4.22 4.64 5.13 l1.18 1.67 0.76 -1.06 c0.42 -0.59 1.57 -2.01 2.53 -3.17z m9.30 -0.96 c3.61 -2.21 9.62 -4.83 13.50 -5.89 5.15 -1.40 10.60 -2.01 15.66 -1.77 1.79 0.07 2.14 0.05 2.14 -0.27 0 -0.37 -1.60 -2.43 -3.78 -4.86 l-1.18 -1.30 -1.74 0.07 c-2.16 0.07 -4.81 1.03 -10.16 3.58 -4.56 2.18 -7.75 4.07 -10.97 6.45 -2.31 1.74 -7.07 6.14 -5.79 5.40 0.34 -0.20 1.37 -0.83 2.33 -1.42z m-24.47 -0.37 c-4.88 -4.71 -11.68 -8.86 -20.25 -12.29 -2.75 -1.10 -3.48 -1.30 -5.10 -1.35 l-1.87 -0.07 -0.79 0.88 c-3.39 3.90 -4.34 5.08 -4.34 5.30 0 0.17 1.50 0.27 4.49 0.25 6.23 0 10.63 0.74 16.74 2.80 2.55 0.86 8.83 3.85 11.17 5.30 0.88 0.56 1.64 1.01 1.72 1.01 0.07 0 -0.74 -0.81 -1.77 -1.82z m-39.58 -6.75 c-0.27 -0.44 -4.74 -2.94 -7.17 -4.02 -6.33 -2.80 -14.65 -4.71 -15.14 -3.46 -0.07 0.22 -0.52 0.54 -0.98 0.74 -1.84 0.79 -3.58 -0.37 -3.58 -2.33 0 -0.88 0.56 -2.09 1.08 -2.28 0.29 -0.12 0.37 -0.96 0.37 -4.93 0 -5.28 -0.17 -5.84 -1.10 -3.51 -3.88 9.52 -6.48 16 -6.48 16.17 0 0.10 2.18 0.20 4.86 0.20 8.52 0 16.74 1.01 25.94 3.17 2.40 0.56 2.40 0.56 2.21 0.27z m106.41 -0.59 c3.71 -0.83 9.18 -1.77 13.03 -2.23 3.61 -0.44 12.61 -0.86 14.87 -0.66 0.88 0.05 1.52 0 1.52 -0.12 0 -0.25 -1.89 -5.06 -5.10 -13.13 -1.25 -3.12 -1.74 -4.12 -2.06 -4.12 -0.42 0 -0.44 0.39 -0.44 4.66 0 3.98 0.05 4.71 0.37 4.83 0.54 0.20 1.10 1.37 1.10 2.33 0 1.03 -0.59 1.87 -1.57 2.28 -1.01 0.42 -1.99 0.22 -2.82 -0.61 l-0.66 -0.69 -2.23 0.34 c-5.72 0.83 -11.21 2.77 -16.74 5.89 -1.77 0.98 -3.44 2.36 -2.45 1.99 0.22 -0.07 1.67 -0.42 3.19 -0.76z m-102.41 -2.01 l1.62 -0.02 2.53 -2.90 c1.99 -2.26 2.45 -2.97 2.18 -3.12 -0.69 -0.39 -7.48 -1.91 -11.73 -2.65 -5.23 -0.91 -11.21 -1.62 -16.81 -2.01 -2.33 -0.17 -4.25 -0.37 -4.25 -0.47 0 -0.07 0.66 -1.64 1.45 -3.44 1.91 -4.37 8.52 -19.88 8.74 -20.56 0.32 -1.06 -0.56 -0.49 -2.21 1.40 -0.93 1.03 -2.97 3.21 -4.56 4.83 -2.58 2.65 -2.87 3.04 -2.99 4 -0.07 0.59 -0.42 1.42 -0.76 1.89 l-0.64 0.83 0 6.43 0 6.41 0.96 0.96 c0.56 0.56 1.18 0.96 1.52 0.96 1.40 0.02 6.85 1.28 9.84 2.28 3.48 1.15 8.37 3.39 10.99 5.03 1.50 0.93 1.62 0.96 2.06 0.59 0.32 -0.29 0.93 -0.42 2.06 -0.44z m103.73 -2.67 c4.49 -2.16 9.94 -3.88 14.60 -4.56 1.87 -0.29 2.16 -0.42 2.99 -1.23 l0.93 -0.91 0 -6.65 c0 -3.88 -0.10 -6.65 -0.22 -6.65 -0.42 0 -1.25 -1.64 -1.25 -2.43 0 -0.66 -0.52 -1.33 -3.41 -4.39 -1.87 -1.99 -3.83 -4.12 -4.34 -4.76 -0.91 -1.08 -1.82 -1.52 -1.82 -0.86 0 0.15 2.31 5.64 5.10 12.20 l5.10 11.90 -0.86 0.17 c-0.49 0.10 -1.82 0.17 -2.97 0.20 -2.31 0 -9.77 0.74 -13.74 1.33 -5.87 0.91 -14.58 2.87 -15.17 3.44 -0.27 0.27 0.10 0.81 2.09 3.04 l2.40 2.75 1.35 0 c0.91 0 1.57 0.15 2.04 0.47 l0.69 0.44 1.89 -1.08 c1.03 -0.59 3.12 -1.67 4.59 -2.40z m-86.58 -10.04 c2.67 -1.25 5.28 -2.43 5.79 -2.63 0.49 -0.17 0.91 -0.39 0.91 -0.49 0 -0.49 -8.44 -3.44 -13.25 -4.64 -7.48 -1.87 -10.80 -2.38 -10.80 -1.62 0 0.20 0.10 0.44 0.25 0.52 0.12 0.07 2.16 2.55 4.49 5.47 l4.25 5.33 1.13 -0.07 c0.64 -0.05 1.35 0.02 1.60 0.17 0.25 0.15 0.52 0.27 0.61 0.27 0.10 0 2.36 -1.03 5.03 -2.31z m67.71 1.87 c1.23 -0.17 1.33 -0.22 2.92 -2.23 0.88 -1.10 2.97 -3.66 4.59 -5.64 l2.97 -3.58 -0.83 -0.07 c-0.47 -0.05 -1.37 0.02 -2.06 0.17 -0.66 0.15 -2.60 0.54 -4.29 0.88 -5.60 1.10 -15.83 4.37 -16.88 5.37 -0.25 0.25 0.27 0.54 2.45 1.50 1.52 0.66 4.10 1.84 5.72 2.63 2.09 1.01 3.12 1.37 3.56 1.28 0.34 -0.07 1.18 -0.22 1.87 -0.29z m-79.58 -0.83 c-0.22 -0.39 -5.01 -6.31 -6.31 -7.85 -0.93 -1.10 -1.08 -1.18 -2.18 -1.18 -2.72 0 -4.37 -2.18 -3.51 -4.66 0.34 -1.01 0.34 -1.08 -0.27 -2.06 -1.33 -2.16 -3.85 -5.30 -4.27 -5.30 -0.22 0 -0.52 0.15 -0.64 0.32 -0.27 0.32 -7.09 16.27 -7.24 16.86 -0.05 0.29 0.39 0.39 2.26 0.54 5.52 0.42 12.98 1.57 18.77 2.87 3.83 0.86 3.63 0.83 3.39 0.47z m89.38 -0.79 c5.15 -1.13 10.90 -2.01 15.58 -2.38 1.96 -0.15 3.63 -0.34 3.73 -0.44 0.27 -0.25 -7.24 -17.57 -7.66 -17.64 -0.22 -0.02 -1.13 0.96 -2.23 2.45 -3.14 4.25 -2.99 4 -2.55 4.83 0.69 1.35 0.29 3.02 -0.96 4.17 -0.49 0.47 -1.01 0.64 -2.28 0.74 l-1.64 0.15 -3.61 4.42 c-1.99 2.43 -3.63 4.52 -3.63 4.64 -0.02 0.10 0.22 0.15 0.54 0.10 0.29 -0.07 2.43 -0.54 4.71 -1.03z m-97.87 -19.80 c1.18 -6.55 1.20 -6.80 0.69 -6.99 -0.22 -0.10 -1.89 0.15 -3.71 0.52 l-3.29 0.69 -0.52 1.13 c-0.29 0.64 -0.42 1.25 -0.29 1.40 0.10 0.15 1.03 1.37 2.06 2.70 1.03 1.35 2.28 3.07 2.80 3.85 0.52 0.79 1.06 1.37 1.18 1.33 0.15 -0.05 0.64 -2.11 1.08 -4.61z m103.71 3.04 c0.61 -0.93 1.96 -2.72 2.97 -3.98 1.03 -1.28 1.87 -2.40 1.87 -2.50 0 -0.07 -0.22 -0.66 -0.49 -1.28 -0.44 -1.01 -0.59 -1.13 -1.67 -1.35 -5.77 -1.25 -6.18 -1.25 -6.18 -0.25 0 0.29 0.37 2.48 0.83 4.83 0.47 2.38 0.91 4.74 0.98 5.25 0.10 0.49 0.25 0.91 0.37 0.91 0.10 0 0.69 -0.74 1.33 -1.64z"/>
  <path d="M121.97 106.97 c-2.63 -1.82 -8.10 -4.76 -10.48 -5.67 l-1.06 -0.39 0 -7.09 c0 -7.85 -0.12 -8.81 -1.47 -10.43 -1.10 -1.33 -2.50 -1.91 -4.59 -1.91 -1.35 0 -1.87 0.10 -2.36 0.49 -0.34 0.27 -0.71 0.49 -0.86 0.49 -0.54 0 -1.62 1.15 -2.16 2.31 -0.56 1.20 -0.59 1.50 -0.59 6.63 l0 5.37 -1.03 -0.17 c-0.59 -0.10 -2.21 -0.42 -3.63 -0.74 l-2.58 -0.54 -0.07 -11.04 -0.05 -11.04 6.31 -4.52 c3.46 -2.50 6.43 -4.61 6.60 -4.74 0.22 -0.12 2.21 1.18 5.62 3.63 l5.28 3.83 9.30 -6.87 c5.13 -3.80 9.47 -6.97 9.67 -7.04 0.20 -0.07 0.66 0.15 1.06 0.47 0.39 0.32 3.09 2.31 5.99 4.42 2.90 2.11 6.85 5.01 8.79 6.45 l3.48 2.60 0.69 -0.44 c0.37 -0.22 2.75 -1.96 5.30 -3.83 l4.64 -3.44 0.64 0.47 c0.34 0.27 3.31 2.38 6.60 4.71 l5.94 4.25 0 11.02 0 11.02 -0.54 0.22 c-0.32 0.12 -1.72 0.47 -3.14 0.76 -1.42 0.29 -2.82 0.59 -3.12 0.66 -0.52 0.12 -0.52 0.12 -0.61 -5.50 -0.07 -4.54 -0.17 -5.77 -0.52 -6.48 -0.59 -1.33 -1.57 -2.38 -2.70 -2.97 -1.84 -0.93 -5.79 -0.20 -7.21 1.33 -0.29 0.32 -0.76 1.06 -1.03 1.67 -0.47 1.03 -0.52 1.60 -0.52 8.47 l0 7.36 -0.86 0.56 c-0.47 0.29 -0.91 0.54 -0.96 0.54 -0.34 0 -6.06 2.87 -6.94 3.46 -0.56 0.39 -1.13 0.71 -1.25 0.71 -0.12 0 -0.42 0.22 -0.66 0.49 -0.25 0.27 -0.54 0.49 -0.64 0.49 -0.10 0 -0.86 0.44 -1.67 0.98 -0.81 0.54 -1.52 0.98 -1.60 0.98 -0.07 0 -0.15 -5.67 -0.20 -12.56 l-0.07 -12.59 -0.66 -1.40 c-1.33 -2.82 -2.92 -4.22 -5.79 -5.01 -1.37 -0.39 -1.79 -0.39 -3.31 -0.15 -0.96 0.17 -1.91 0.47 -2.14 0.64 -0.20 0.17 -0.79 0.47 -1.28 0.61 -1.15 0.37 -2.75 2.11 -3.58 3.90 l-0.66 1.40 -0.07 12.59 c-0.05 6.90 -0.15 12.56 -0.25 12.54 -0.10 0 -1.45 -0.91 -2.99 -1.96z"/>
  <path d="M122.92 58.23 c-0.02 -2.28 -0.05 -6.77 -0.07 -10.01 -0.02 -3.24 -0.07 -6.85 -0.10 -8.02 l-0.05 -2.14 -1.03 -0.07 c-0.59 -0.05 -1.03 -0.15 -0.98 -0.25 0.02 -0.12 0.05 -0.69 0.05 -1.30 l0 -1.10 1.79 0 c1.64 -0.02 1.79 -0.07 2.26 -0.69 0.25 -0.37 2.21 -2.80 4.34 -5.37 l3.88 -4.74 0 -3.07 0 -3.07 0.98 0 0.98 0 0 3.07 0 3.04 2.38 2.90 c1.30 1.60 3.31 4.02 4.44 5.40 l2.06 2.50 1.74 0.07 1.77 0.07 0.07 1.30 c0.07 1.23 0.05 1.28 -0.54 1.28 -0.34 0 -0.88 0.10 -1.23 0.25 l-0.64 0.25 0 11.90 c0 6.55 -0.05 11.90 -0.12 11.90 -0.07 0 -1.64 -1.10 -3.51 -2.48 l-3.36 -2.45 -0.12 -6.11 c-0.12 -5.67 -0.15 -6.16 -0.64 -6.77 -0.91 -1.25 -1.74 -1.69 -3.12 -1.69 -1.06 0 -1.47 0.15 -2.43 0.83 -0.66 0.47 -1.25 1.15 -1.40 1.57 -0.17 0.44 -0.27 3.09 -0.27 6.45 l0 5.69 -2.14 1.60 c-1.20 0.86 -2.31 1.74 -2.50 1.96 -0.17 0.25 -0.47 0.42 -0.61 0.42 -0.15 0 -0.54 0.22 -0.88 0.49 -0.34 0.27 -0.69 0.49 -0.79 0.49 -0.12 0 -0.22 -1.84 -0.22 -4.10z"/>
 </g>
 <g fill="#053466">
  <path d="M181.43 219 c-0.86 -0.37 -0.93 -0.52 -0.59 -1.03 0.22 -0.37 0.69 -0.39 2.85 -0.10 1.18 0.15 1.37 0.22 0.91 0.39 -0.32 0.10 -1.10 0.12 -1.79 0.02 -0.98 -0.15 -1.20 -0.10 -1.20 0.20 0 0.22 0.25 0.42 0.56 0.47 0.29 0.05 0.44 0.15 0.29 0.22 -0.12 0.07 -0.61 0 -1.03 -0.17z"/>
  <path d="M186.80 217.87 c0.17 -0.37 0.32 -1.94 0.34 -4.25 0.07 -3.78 -0.05 -4.34 -0.88 -3.75 -0.20 0.17 -0.12 0.02 0.17 -0.27 0.34 -0.39 0.66 -0.52 0.93 -0.42 0.39 0.15 0.42 0.54 0.32 4.02 -0.12 3.66 -0.42 5.20 -0.98 5.20 -0.12 0 -0.07 -0.25 0.10 -0.54z"/>
  <path d="M22.70 216.62 c-0.54 -0.20 -1.23 -0.47 -1.55 -0.64 -0.56 -0.29 -0.56 -0.32 -0.15 -0.81 0.47 -0.49 0.66 -0.49 2.72 0.02 1.20 0.32 2.11 0.05 2.53 -0.71 0.42 -0.79 -0.22 -1.35 -2.18 -1.94 -0.91 -0.27 -1.96 -0.74 -2.31 -1.01 -1.40 -1.10 -0.93 -3.61 0.81 -4.47 2.09 -1.06 6.14 0.15 4.86 1.42 -0.34 0.34 -0.54 0.37 -1.20 0.12 -1.10 -0.39 -2.80 -0.34 -3.14 0.07 -0.17 0.20 -0.27 0.66 -0.22 1.06 0.07 0.64 0.25 0.74 2.23 1.37 1.82 0.59 2.23 0.83 2.65 1.47 0.25 0.44 0.47 1.03 0.47 1.35 0 0.81 -0.61 1.87 -1.33 2.33 -0.83 0.56 -2.99 0.74 -4.20 0.34z"/>
  <path d="M30.63 216.54 c-0.83 -0.44 -0.98 -0.98 -1.03 -3.61 -0.02 -1.89 -0.05 -2.01 -0.56 -2.09 -0.44 -0.07 -0.56 -0.25 -0.56 -0.79 0 -0.54 0.12 -0.71 0.56 -0.79 0.42 -0.05 0.56 -0.27 0.61 -0.86 0.07 -0.71 0.17 -0.81 0.81 -0.81 0.66 0 0.71 0.07 0.71 0.86 0 0.83 0.02 0.86 0.98 0.86 0.91 0 0.98 0.05 0.98 0.69 0 0.61 -0.12 0.74 -0.91 0.93 -0.91 0.22 -0.93 0.25 -1.01 1.45 -0.05 0.66 -0.02 1.57 0.07 2.01 0.12 0.69 0.25 0.79 1.06 0.86 0.79 0.07 0.91 0.17 0.98 0.71 0.05 0.49 -0.05 0.69 -0.49 0.81 -0.88 0.22 -1.50 0.17 -2.21 -0.25z"/>
  <path d="M36.17 216.72 c-0.29 -0.12 -0.76 -0.54 -1.06 -0.91 -0.47 -0.59 -0.52 -0.96 -0.52 -3.56 l0 -2.92 0.74 0 c0.42 0 0.74 0.05 0.74 0.12 0 0.05 -0.22 0.71 -0.52 1.45 -0.34 0.93 -0.47 1.79 -0.42 2.72 0.07 1.23 0.15 1.42 0.79 1.79 0.54 0.32 0.74 0.34 0.81 0.12 0.07 -0.17 0.49 -0.32 0.93 -0.32 0.59 0 0.96 -0.17 1.33 -0.64 0.44 -0.56 0.52 -1.01 0.52 -2.94 l0 -2.31 0.88 0 0.86 0 -0.07 3.68 -0.07 3.68 -1.35 -0.05 c-0.74 -0.02 -1.74 0.02 -2.21 0.12 -0.47 0.07 -1.10 0.05 -1.37 -0.05z m4.42 -3.88 c0.07 -0.52 0.10 -1.33 0.02 -1.79 -0.05 -0.47 -0.10 -0.93 -0.10 -1.03 -0.02 -0.12 -0.12 -0.20 -0.27 -0.20 -0.15 0 -0.25 0.81 -0.25 1.96 0 2.04 0.34 2.65 0.59 1.06z"/>
  <path d="M44.44 216.50 c-1.28 -0.64 -1.82 -1.55 -1.91 -3.17 -0.20 -3.04 2.31 -5.10 4.69 -3.88 0.37 0.20 0.74 0.37 0.79 0.37 0.05 0 0.10 -0.83 0.10 -1.84 l0 -1.84 0.71 0 c0.69 0 0.69 0 0.83 1.89 0.15 1.94 0.02 2.63 -0.37 1.96 -0.17 -0.34 -0.29 -0.34 -1.01 -0.05 -0.66 0.27 -0.88 0.27 -1.40 -0.02 -0.83 -0.44 -1.37 -0.42 -2.23 0.07 -0.79 0.47 -0.91 0.93 -0.34 1.15 0.29 0.10 0.34 0.25 0.12 0.61 -0.34 0.66 -0.29 2.26 0.10 2.77 0.47 0.64 1.52 0.96 2.21 0.69 1.20 -0.44 1.62 -1.84 1.10 -3.68 -0.07 -0.25 0.07 -0.37 0.39 -0.37 0.47 0 0.49 0.17 0.49 2.43 0 1.72 0.10 2.45 0.32 2.53 0.15 0.07 0.29 0 0.29 -0.17 0 -0.15 0.12 -0.20 0.25 -0.12 0.15 0.07 0.25 0.32 0.25 0.54 0 0.32 -0.22 0.37 -1.33 0.22 -0.81 -0.07 -1.40 -0.05 -1.50 0.10 -0.25 0.39 -1.64 0.29 -2.55 -0.20z m-0.69 -3.90 c0.10 -1.42 -0.07 -1.64 -0.54 -0.66 -0.22 0.52 -0.22 0.86 0 1.55 0.34 1.01 0.39 0.91 0.54 -0.88z"/>
  <path d="M69.20 216.64 c-0.86 -0.47 -1.28 -1.91 -1.18 -4.20 0.05 -1.03 0 -1.91 -0.12 -1.96 -0.27 -0.07 -0.42 -1.15 -0.15 -1.15 0.12 0 0.22 -0.39 0.22 -0.86 0 -0.81 0.05 -0.86 0.86 -0.86 0.81 0 0.86 0.05 0.86 0.86 0 0.83 0.02 0.86 1.01 0.86 0.93 0 0.98 0.02 0.91 0.69 -0.05 0.49 -0.22 0.69 -0.69 0.74 -1.06 0.15 -1.23 0.49 -1.23 2.28 0 1.89 0.37 2.53 1.35 2.28 0.49 -0.12 0.61 -0.02 0.76 0.49 0.07 0.37 0.10 0.71 0.02 0.79 -0.32 0.32 -2.06 0.34 -2.63 0.05z"/>
  <path d="M87.51 216.69 c-3.83 -1.18 -3.19 -7.17 0.81 -7.56 0.88 -0.07 1.30 0.02 1.99 0.49 1.01 0.69 1.72 1.96 1.72 3.12 l0 0.83 -1.28 -0.17 c-0.71 -0.07 -1.84 -0.15 -2.48 -0.15 -0.74 0 -1.13 -0.10 -1.03 -0.25 0.07 -0.12 0 -0.25 -0.22 -0.25 -0.20 0 -0.52 -0.07 -0.74 -0.15 -0.71 -0.27 -0.44 0.59 0.52 1.60 1.06 1.18 1.99 1.45 3.07 0.91 0.71 -0.37 0.81 -0.37 1.23 0 0.59 0.56 0.56 0.76 -0.22 1.18 -0.93 0.47 -2.50 0.66 -3.36 0.39z m3.53 -3.95 c0 -0.15 -0.34 -0.64 -0.79 -1.10 -0.66 -0.69 -0.98 -0.83 -1.84 -0.83 -0.79 0 -1.13 0.12 -1.40 0.54 -0.22 0.29 -0.39 0.64 -0.39 0.74 0 0.12 0.81 0.20 1.82 0.20 1.37 0 1.84 0.10 1.96 0.37 0.15 0.42 0.64 0.49 0.64 0.10z"/>
  <path d="M101.89 216.77 c-0.88 -0.17 -2.18 -1.57 -2.48 -2.72 -0.37 -1.30 -0.02 -2.72 0.93 -3.78 0.59 -0.66 0.83 -0.76 2.40 -0.86 1.72 -0.12 1.74 -0.12 2.67 0.71 0.86 0.81 0.93 0.98 1.03 2.45 0.12 1.87 -0.25 2.80 -1.50 3.73 -0.81 0.61 -1.62 0.74 -3.07 0.47z m2.38 -2.06 c0.66 -0.71 0.83 -1.60 0.52 -2.58 -0.32 -0.98 -0.86 -1.33 -2.04 -1.33 -1.79 0 -2.55 2.53 -1.15 3.93 0.66 0.66 2.04 0.64 2.67 -0.02z"/>
  <path d="M109.47 216.64 c-1.35 -0.71 -1.62 -1.47 -1.62 -4.52 l0 -2.80 0.81 0 0.79 0 0 2.40 c0 2.65 0.32 3.48 1.35 3.48 1.55 0 2.09 -0.93 2.09 -3.63 0 -2.01 0.22 -2.53 1.01 -2.33 0.61 0.17 0.69 2.04 0.10 2.04 -0.42 0 -0.54 1.60 -0.12 1.84 0.37 0.22 0.29 1.52 -0.12 2.36 -0.22 0.39 -0.32 0.83 -0.25 0.93 0.07 0.12 -0.29 0.22 -0.81 0.22 -0.49 0 -1.30 0.07 -1.77 0.15 -0.52 0.10 -1.10 0.02 -1.45 -0.15z"/>
  <path d="M123.24 216.69 c-2.63 -0.61 -3.53 -4.59 -1.50 -6.53 0.64 -0.59 0.96 -0.71 2.43 -0.79 1.79 -0.10 2.94 0.29 2.94 1.03 0 0.44 -0.91 1.23 -1.08 0.91 -0.10 -0.12 -0.05 -0.32 0.10 -0.39 0.44 -0.27 -0.86 -1.10 -1.72 -1.10 -0.91 0 -1.79 0.42 -1.57 0.76 0.07 0.12 0 0.42 -0.20 0.64 -0.17 0.22 -0.29 0.44 -0.25 0.49 0.02 0.05 0 0.34 -0.10 0.69 -0.20 0.79 0.32 2.28 0.88 2.58 0.69 0.37 2.11 0.29 2.45 -0.12 0.42 -0.49 0.81 -0.47 1.33 0.10 0.56 0.61 0.34 0.93 -0.93 1.52 -1.08 0.49 -1.52 0.52 -2.80 0.22z"/>
  <path d="M130.60 216.69 c-2.26 -0.54 -3.41 -3.39 -2.28 -5.62 0.59 -1.15 1.35 -1.64 2.75 -1.87 1.99 -0.27 3.44 0.96 3.80 3.26 l0.17 1.03 -1.33 0 c-2.18 0 -3.90 0.27 -3.90 0.64 0 0.42 1.18 1.33 1.77 1.33 0.25 0 0.81 -0.17 1.20 -0.39 0.69 -0.34 0.79 -0.34 1.23 0.05 0.61 0.56 0.59 0.76 -0.20 1.15 -0.93 0.49 -2.26 0.64 -3.21 0.42z m2.65 -4.61 c0 -0.10 -0.17 -0.44 -0.39 -0.74 -0.29 -0.42 -0.61 -0.54 -1.45 -0.54 -0.83 0 -1.15 0.12 -1.45 0.54 -0.22 0.29 -0.39 0.64 -0.39 0.74 0 0.12 0.83 0.20 1.84 0.20 1.01 0 1.84 -0.07 1.84 -0.20z"/>
  <path d="M141.28 216.67 c-0.52 -0.12 -1.25 -0.39 -1.64 -0.59 -0.64 -0.34 -0.71 -0.44 -0.47 -0.88 0.22 -0.44 0.42 -0.49 1.15 -0.34 3.26 0.56 4.22 0.37 4.22 -0.86 0 -0.61 -0.15 -0.74 -1.10 -1.08 -0.61 -0.22 -1.60 -0.56 -2.21 -0.79 -1.40 -0.49 -1.84 -1.13 -1.84 -2.63 0 -2.04 1.30 -2.80 4.44 -2.58 1.67 0.12 2.33 0.56 2.06 1.42 -0.15 0.44 -0.29 0.52 -0.81 0.37 -1.64 -0.42 -3.02 -0.42 -3.51 0.02 -1.06 0.93 -0.42 1.72 2.01 2.40 1.89 0.54 2.67 1.35 2.67 2.82 0 1.18 -0.44 1.96 -1.35 2.43 -0.76 0.39 -2.60 0.54 -3.63 0.27z"/>
  <path d="M157.38 216.77 c-1.67 -0.32 -2.33 -2.36 -1.20 -3.68 0.52 -0.59 0.79 -0.69 2.33 -0.76 1.45 -0.10 1.74 -0.17 1.74 -0.54 0 -0.22 -0.22 -0.61 -0.49 -0.86 -0.47 -0.42 -1.40 -0.42 -2.85 0 -0.37 0.12 -0.56 0 -0.79 -0.49 -0.27 -0.56 -0.25 -0.64 0.39 -0.91 1.23 -0.49 3.09 -0.54 3.95 -0.07 1.18 0.59 1.50 1.62 1.50 4.66 l0 2.60 -1.28 -0.07 c-0.71 -0.02 -1.62 0 -2.04 0.10 -0.39 0.07 -0.98 0.10 -1.28 0.02z m2.48 -1.77 c0.64 -0.71 0.42 -1.35 -0.49 -1.45 -1.57 -0.15 -2.60 0.79 -1.77 1.62 0.47 0.47 1.79 0.34 2.26 -0.17z m1.23 -1.60 c-0.12 -0.32 -0.22 -0.34 -0.49 -0.12 -0.27 0.22 -0.29 0.37 -0.07 0.64 0.37 0.42 0.79 0.05 0.56 -0.52z m0.15 -1.25 c0 -0.76 -0.49 -1.60 -0.86 -1.45 -0.32 0.12 -0.32 0.20 0 0.66 0.20 0.29 0.37 0.74 0.37 0.98 0 0.25 0.12 0.37 0.25 0.29 0.15 -0.07 0.25 -0.29 0.25 -0.49z"/>
  <path d="M214.58 216.69 c-1.06 -0.42 -1.33 -1.18 -1.33 -3.63 0 -1.94 -0.07 -2.43 -0.52 -3.02 -0.27 -0.39 -0.42 -0.71 -0.29 -0.69 0.61 0.10 0.81 -0.10 0.81 -0.88 0 -0.81 0.05 -0.86 0.86 -0.86 0.81 0 0.86 0.05 0.86 0.86 0 0.81 0.05 0.86 0.86 0.86 0.79 0 0.86 0.05 0.86 0.74 0 0.54 -0.12 0.74 -0.42 0.74 -1.01 0.02 -1.30 0.59 -1.30 2.40 0 1.87 0.17 2.14 1.25 2.06 0.49 -0.05 0.69 0.07 0.81 0.49 0.25 0.98 -1.08 1.50 -2.45 0.93z"/>
  <path d="M224.67 216.77 c-0.81 -0.22 -1.82 -1.06 -2.23 -1.84 -0.32 -0.64 -0.34 -0.86 -0.07 -1.40 0.17 -0.34 0.32 -0.79 0.37 -0.96 0.12 -0.69 0.34 -0.59 0.34 0.17 0 0.44 0.10 0.74 0.22 0.66 0.12 -0.07 0.34 0.20 0.52 0.61 0.37 0.83 0.91 1.20 1.84 1.20 0.93 0 1.47 -0.37 1.84 -1.20 0.34 -0.88 0.15 -2.28 -0.37 -2.72 -0.32 -0.27 -0.29 -0.39 0.27 -0.93 l0.64 -0.64 0.47 0.59 c1.40 1.82 0.98 4.81 -0.81 5.99 -0.64 0.42 -2.28 0.66 -3.02 0.47z"/>
  <path d="M52.44 216.15 c-0.79 -0.56 -0.86 -0.93 -0.17 -0.76 0.47 0.12 1.13 0.98 0.93 1.18 -0.05 0.05 -0.37 -0.15 -0.76 -0.42z"/>
  <path d="M56.07 216.13 c0.49 -0.69 0.47 -1.01 -0.05 -0.81 -0.42 0.17 -0.42 0.15 -0.02 -0.25 0.42 -0.42 0.44 -0.42 0.93 0.02 0.39 0.37 0.69 1.10 0.42 1.10 -0.02 0 -0.42 0.10 -0.86 0.22 -0.79 0.22 -0.79 0.22 -0.42 -0.29z"/>
  <path d="M59.14 213.16 c0 -2.77 0.07 -3.58 0.37 -3.83 0.49 -0.42 1.13 -0.22 1.37 0.47 0.20 0.49 0.17 0.56 -0.25 0.44 -0.56 -0.15 -0.66 0.25 -0.91 3.61 -0.15 1.96 -0.12 2.21 0.27 2.53 0.44 0.29 0.42 0.32 -0.20 0.32 l-0.66 0 0 -3.53z"/>
  <path d="M64.42 216.40 c-0.05 -0.17 -0.12 -1.55 -0.17 -3.04 -0.10 -2.40 -0.17 -2.80 -0.66 -3.31 -0.47 -0.52 -0.49 -0.59 -0.15 -0.66 0.81 -0.17 1.62 0.22 2.09 1.01 0.42 0.66 0.49 1.23 0.49 3.56 l0 2.75 -0.74 0 c-0.42 0 -0.79 -0.15 -0.86 -0.29z"/>
  <path d="M76.32 211.78 l0 -4.91 2.80 0 c2.48 0 2.87 0.05 3.61 0.56 1.72 1.15 1.89 3.75 0.34 5.23 l-0.83 0.76 0.96 1.45 c0.54 0.81 0.98 1.52 0.98 1.64 0 0.10 -0.39 0.17 -0.86 0.17 -0.81 0 -0.96 -0.12 -1.79 -1.47 l-0.91 -1.45 -1.37 -0.02 -1.35 0 0.10 1.47 0.10 1.47 -0.88 0 -0.88 0 0 -4.91z m1.28 2.09 c0.15 -0.34 0.44 -0.61 0.66 -0.61 0.27 0 0.20 -0.17 -0.29 -0.64 -0.39 -0.34 -0.74 -0.59 -0.76 -0.56 -0.05 0.05 -0.17 0.61 -0.25 1.28 -0.20 1.28 0.15 1.60 0.64 0.54z m4.29 -2.43 c0.74 -0.86 0.71 -1.74 -0.05 -2.48 -0.47 -0.49 -0.83 -0.61 -1.91 -0.61 -0.71 0 -1.42 0.12 -1.60 0.29 -0.39 0.39 -0.39 3.31 0.02 3.48 0.15 0.07 0.88 0.10 1.62 0.05 1.10 -0.05 1.45 -0.20 1.91 -0.74z"/>
  <path d="M147.61 211.73 c-0.17 -4.61 -0.15 -4.98 0.27 -5.28 0.25 -0.17 0.64 -0.32 0.88 -0.32 0.39 0 0.44 0.22 0.44 1.84 0 1.30 0.10 1.84 0.32 1.84 0.20 0 0.22 0.05 0.02 0.20 -0.15 0.10 -0.27 0.66 -0.27 1.28 0.02 0.61 0 2.06 -0.02 3.26 l-0.05 2.14 -0.71 0 -0.69 0 -0.20 -4.96z"/>
  <path d="M152.64 214.97 c0 -0.98 0.10 -1.72 0.25 -1.72 0.15 0 0.25 0.66 0.25 1.47 0 1.15 0.07 1.47 0.37 1.47 0.52 0 0.49 -2.23 -0.02 -3.24 -0.25 -0.47 -0.34 -1.03 -0.25 -1.55 0.20 -0.98 -0.39 -1.60 -1.79 -1.77 -1.13 -0.15 -1.13 -0.56 0 -0.56 1.10 0 2.18 0.66 2.58 1.60 0.22 0.54 0.34 1.74 0.34 3.44 l0 2.58 -0.86 0 -0.86 0 0 -1.72z"/>
  <path d="M163.68 213.01 l0 -3.68 0.71 0 c0.59 0 0.71 0.12 0.81 0.74 0.07 0.39 0 0.83 -0.15 0.98 -0.20 0.20 -0.17 0.37 0.10 0.56 0.29 0.25 0.34 0.79 0.29 2.70 l-0.07 2.38 -0.83 0 -0.86 0 0 -3.68z"/>
  <path d="M168.64 213.08 l0.07 -3.63 0.79 -0.07 c0.64 -0.07 0.79 0 0.66 0.29 -0.07 0.22 -0.22 0.34 -0.34 0.27 -0.12 -0.07 -0.44 3.07 -0.54 5.64 0 0.15 0.07 0.44 0.17 0.69 0.12 0.32 0.05 0.42 -0.34 0.42 -0.52 0 -0.52 -0.07 -0.47 -3.61z"/>
  <path d="M172.32 213.08 l0.07 -3.63 0.76 -0.07 c0.61 -0.05 0.81 0.02 0.91 0.42 0.07 0.29 0.02 0.47 -0.07 0.39 -0.22 -0.12 -0.20 0.79 0.02 1.23 0.05 0.15 0.02 1.30 -0.05 2.58 -0.07 1.40 -0.15 1.84 -0.17 1.08 -0.05 -1.18 -0.49 -2.04 -0.86 -1.64 -0.10 0.07 -0.17 0.74 -0.17 1.45 0 1.18 0.05 1.30 0.69 1.52 0.66 0.25 0.64 0.25 -0.27 0.27 l-0.93 0.02 0.07 -3.61z"/>
  <path d="M177.43 215.86 c0 -0.44 0.07 -1.35 0.17 -2.01 0.15 -1.06 0.20 -1.10 0.32 -0.49 0.15 0.88 0.74 1.15 0.76 0.34 0.05 -0.66 0.42 1.33 0.44 2.33 0.02 0.59 -0.05 0.66 -0.83 0.66 -0.81 0 -0.86 -0.05 -0.86 -0.83z"/>
  <path d="M192.89 211.78 l0 -4.91 2.58 0 c2.82 0 3.63 0.25 4.52 1.37 1.06 1.33 0.47 4.25 -0.98 5.01 -0.29 0.17 -1.30 0.39 -2.23 0.52 -0.93 0.12 -1.79 0.27 -1.94 0.34 -0.12 0.10 -0.22 0.69 -0.22 1.37 l0 1.20 -0.86 0 -0.86 0 0 -4.91z m5.40 -0.12 c0.76 -0.69 0.66 -2.16 -0.15 -2.80 -0.74 -0.59 -2.75 -0.71 -3.24 -0.22 -0.32 0.32 -0.42 3.19 -0.10 3.48 0.34 0.37 2.94 0.02 3.48 -0.47z"/>
  <path d="M201.97 211.42 l0 -5.30 0.81 0.07 0.79 0.07 -0.02 5.15 0 5.15 -0.79 0.07 -0.79 0.07 0 -5.30z"/>
  <path d="M205.53 216.08 c-0.88 -0.86 -0.83 -2.16 0.10 -3.09 0.66 -0.64 0.88 -0.71 2.33 -0.71 1.40 0 1.62 -0.05 1.62 -0.44 0 -0.25 -0.27 -0.69 -0.61 -0.98 -0.34 -0.29 -0.61 -0.64 -0.61 -0.79 0 -0.32 -1.64 -0.32 -1.84 -0.02 -0.07 0.12 0.12 0.27 0.42 0.32 0.54 0.10 0.52 0.12 -0.17 0.42 -0.61 0.27 -0.76 0.25 -1.03 -0.12 -0.52 -0.71 -0.37 -0.98 0.64 -1.28 1.33 -0.42 2.45 -0.37 3.46 0.15 1.25 0.61 1.47 1.25 1.47 4.42 l0 2.75 -0.91 0 -0.93 0 0.59 -0.47 c0.59 -0.47 0.39 -0.91 -0.22 -0.49 -0.56 0.34 -0.74 0.27 -0.56 -0.20 0.15 -0.39 0.12 -0.39 -0.25 -0.12 -0.22 0.20 -0.76 0.32 -1.20 0.27 -1.03 -0.05 -1.74 0.25 -1.57 0.66 0.20 0.52 -0.05 0.42 -0.71 -0.27z m3.61 -1.03 c0.25 -0.22 0.44 -0.64 0.44 -0.93 0 -0.52 -0.12 -0.56 -1.77 -0.66 -0.98 -0.07 -1.84 -0.07 -1.89 -0.02 -0.05 0.02 0.07 0.27 0.29 0.52 0.25 0.25 0.42 0.56 0.42 0.69 0 0.83 1.72 1.13 2.50 0.42z"/>
  <path d="M218.41 213.77 c0 -2.85 -0.02 -2.94 -0.54 -3.02 -0.83 -0.12 -0.88 -1.10 -0.10 -1.47 0.47 -0.20 0.64 -0.47 0.64 -0.93 0 -1.45 1.69 -2.50 3.31 -2.11 0.44 0.12 0.61 0.32 0.59 0.71 0 0.29 -0.07 0.39 -0.15 0.25 -0.39 -1.01 -2.26 0.42 -2.09 1.60 0.07 0.44 0.25 0.54 0.93 0.54 0.81 0 0.86 0.05 0.79 0.66 -0.05 0.54 -0.22 0.71 -0.81 0.81 l-0.74 0.12 -0.07 2.90 -0.07 2.87 -0.83 0 -0.86 0 0 -2.92z"/>
  <path d="M230.68 212.89 l0 -3.80 0.76 0 c0.71 0 0.76 0.05 0.61 0.69 -0.44 1.89 -0.44 1.99 0.02 1.87 0.42 -0.12 0.44 0.02 0.27 1.91 -0.07 1.13 -0.17 2.28 -0.17 2.60 -0.02 0.44 -0.17 0.54 -0.76 0.54 l-0.74 0 0 -3.80z"/>
  <path d="M235.59 212.86 l0 -3.80 0.81 0.07 c0.69 0.07 0.79 0.17 0.79 0.76 -0.02 0.39 0.12 0.66 0.29 0.66 0.25 0 0.27 0.12 0.10 0.44 -0.29 0.54 -0.27 0.37 -0.27 3.24 l0 2.45 -0.86 0 -0.86 0 0 -3.83z"/>
  <path d="M241.67 214.31 c0.07 -1.96 0.02 -2.26 -0.29 -2.14 -0.22 0.07 -0.39 0.52 -0.44 1.03 -0.07 0.83 -0.10 0.79 -0.37 -0.56 -0.15 -0.81 -0.25 -1.50 -0.20 -1.55 0.05 -0.05 0.29 0.05 0.59 0.22 0.27 0.17 0.59 0.25 0.69 0.15 0.10 -0.12 0.02 -0.29 -0.17 -0.42 -0.20 -0.15 -0.27 -0.25 -0.15 -0.25 0.34 0 -0.88 -0.88 -1.50 -1.08 -0.29 -0.10 -0.96 -0.07 -1.47 0.07 l-0.93 0.25 0.59 -0.47 c0.86 -0.74 2.23 -0.64 3.31 0.22 0.56 0.47 0.79 0.76 0.59 0.83 -0.17 0.07 -0.05 0.15 0.27 0.15 0.44 0.02 0.52 0.10 0.32 0.34 -0.32 0.37 -0.29 0.17 -0.29 3.07 0 1.77 -0.07 2.43 -0.29 2.43 -0.25 0 -0.29 -0.59 -0.25 -2.31z"/>
  <path d="M245.40 214.24 c0 -2.43 -0.32 -3.78 -0.83 -3.53 -0.15 0.07 -0.05 -0.05 0.20 -0.25 0.54 -0.42 0.42 -0.47 -0.98 -0.39 -0.54 0.02 -0.76 -0.07 -0.76 -0.34 0 -0.32 0.29 -0.39 1.40 -0.39 1.18 0 1.47 0.10 1.99 0.64 0.54 0.59 0.59 0.83 0.66 3.68 l0.10 3.04 -0.88 0 -0.88 0 0 -2.45z"/>
  <path d="M182.70 216.27 c-0.56 -0.15 -1.10 -0.54 -1.10 -0.83 0 -0.10 0.39 -0.02 0.86 0.17 0.47 0.17 1.20 0.34 1.64 0.34 0.61 0 0.71 0.07 0.44 0.25 -0.39 0.25 -1.01 0.27 -1.84 0.07z"/>
  <path d="M94.28 215.78 c-0.76 -0.27 -1.01 -0.44 -0.81 -0.64 0.17 -0.17 0.44 -0.17 0.88 0.02 0.34 0.17 0.91 0.29 1.23 0.29 0.39 0 0.61 0.15 0.61 0.37 0 0.47 -0.54 0.44 -1.91 -0.05z"/>
  <path d="M98.24 214.48 c0.07 -0.27 0.05 -0.44 -0.05 -0.39 -0.10 0.07 -0.54 -0.22 -0.98 -0.61 -0.59 -0.49 -1.08 -0.71 -1.69 -0.71 -0.81 0 -0.86 0.02 -0.39 0.34 0.74 0.56 0.29 0.64 -0.79 0.17 -2.38 -1.08 -1.74 -3.83 0.96 -4.12 1.45 -0.17 2.87 0.29 2.87 0.93 0 0.56 0.07 0.56 -1.18 -0.02 -1.13 -0.56 -2.26 -0.64 -2.70 -0.20 -0.42 0.42 -0.37 0.96 0.10 0.76 0.29 -0.10 0.34 0 0.22 0.49 -0.17 0.59 -0.07 0.66 1.25 1.06 1.55 0.44 2.80 1.47 2.80 2.28 0 0.29 -0.12 0.52 -0.27 0.52 -0.15 0 -0.22 -0.22 -0.15 -0.49z"/>
  <path d="M185.35 214.29 c0.69 -0.86 0.88 -2.18 0.39 -2.67 -0.32 -0.32 -0.10 -0.81 0.39 -0.81 0.56 0 0.61 0.37 0.27 1.74 -0.20 0.74 -0.29 1.42 -0.22 1.57 0.10 0.12 0.05 0.17 -0.05 0.05 -0.12 -0.10 -0.49 0.07 -0.83 0.37 -0.59 0.54 -0.59 0.54 0.05 -0.25z"/>
  <path d="M57.42 212.74 c0 -1.67 -1.87 -3.34 -3.46 -3.12 -0.44 0.07 -0.69 0 -0.64 -0.15 0.05 -0.15 0.52 -0.29 1.06 -0.34 1.20 -0.10 2.50 0.71 3.09 1.91 0.47 0.93 0.59 2.45 0.20 2.45 -0.12 0 -0.25 -0.34 -0.25 -0.76z"/>
  <path d="M119.88 210.39 c-0.10 -0.32 -0.20 -0.56 -0.22 -0.56 -0.02 0 -0.39 0.10 -0.83 0.25 -0.74 0.20 -0.79 0.17 -0.52 -0.15 0.44 -0.54 1.47 -0.91 1.74 -0.64 0.12 0.12 0.20 0.54 0.12 0.93 -0.10 0.69 -0.12 0.69 -0.29 0.17z"/>
  <path d="M166.58 210.63 c-1.40 -0.15 -1.18 -1.06 0.37 -1.42 0.64 -0.17 0.66 -0.12 0.66 0.71 0 0.49 -0.02 0.86 -0.05 0.83 -0.05 -0.02 -0.49 -0.07 -0.98 -0.12z"/>
  <path d="M232.64 210.56 c-0.32 -0.22 -0.27 -0.34 0.32 -0.86 1.03 -0.91 1.64 -0.81 1.64 0.25 0 0.81 -0.05 0.86 -0.79 0.86 -0.44 0 -0.98 -0.12 -1.18 -0.25z"/>
  <path d="M168.89 207.81 c-0.64 -0.64 -0.17 -1.91 0.69 -1.91 0.54 0 0.88 0.29 1.08 0.88 0.29 0.98 -1.06 1.74 -1.77 1.03z"/>
  <path d="M21.23 197.99 c-0.07 -0.17 -0.10 -6.99 -0.07 -15.17 l0.07 -14.85 3.51 -0.07 3.48 -0.07 0 5.91 0 5.89 6.70 0.07 6.68 0.07 -6.75 -0.02 -6.75 0 -0.07 -5.77 -0.05 -5.77 -3.02 0.07 c-1.64 0.05 -3.07 0.17 -3.14 0.25 -0.10 0.10 -0.22 6.82 -0.25 14.95 -0.05 8.15 -0.12 14.80 -0.17 14.80 -0.02 0 -0.12 -0.15 -0.17 -0.29z"/>
  <path d="M125.16 186.51 l0 -11.78 3.17 0 c2.70 0 3.19 0.05 3.31 0.39 0.10 0.22 0.10 0.47 0.02 0.54 -0.05 0.07 -0.17 -0.07 -0.27 -0.29 -0.12 -0.32 -0.56 -0.39 -2.67 -0.39 -1.40 0 -2.60 0.10 -2.67 0.20 -0.27 0.44 -0.39 3.36 -0.56 12.76 l-0.15 9.87 0.66 0 c0.39 0 0.61 0.10 0.52 0.25 -0.07 0.15 -0.42 0.25 -0.76 0.25 l-0.59 0 0 -11.78z"/>
  <path d="M241.53 186.56 c-0.05 -9.28 0.02 -11.85 0.25 -11.78 0.20 0.07 0.27 0.49 0.22 1.20 -0.05 0.59 -0.17 5.89 -0.27 11.75 l-0.17 10.68 -0.02 -11.85z"/>
  <path d="M214.04 185.72 l-0.05 -10.99 2.80 0 2.80 0 0.10 1.57 c0.02 0.86 0 1.52 -0.10 1.45 -0.12 -0.05 -0.20 -0.71 -0.20 -1.47 l0 -1.35 -2.21 0.10 c-1.20 0.02 -2.31 0.20 -2.43 0.32 -0.17 0.17 -0.34 4.25 -0.47 10.80 l-0.22 10.55 -0.02 -10.97z"/>
  <path d="M134.24 181.35 c0 -0.44 1.60 -1.06 3.07 -1.20 l1.47 -0.15 0.07 -1.89 c0.05 -1.28 -0.02 -1.91 -0.20 -1.91 -0.15 0 -0.20 -0.15 -0.10 -0.29 0.10 -0.17 -0.05 -0.10 -0.34 0.15 -0.29 0.27 -0.54 0.34 -0.54 0.22 0 -0.15 -0.17 -0.32 -0.37 -0.42 -0.20 -0.07 -0.34 0 -0.29 0.17 0.02 0.17 -0.10 0.27 -0.25 0.25 -0.17 -0.05 -0.29 0 -0.29 0.12 0.12 0.71 -0.05 0.98 -0.56 0.83 -0.32 -0.07 -0.64 -0.27 -0.76 -0.44 -0.27 -0.49 -1.03 -0.10 -1.69 0.86 -0.59 0.88 -1.30 1.33 -1.03 0.69 0.07 -0.25 -0.02 -0.42 -0.29 -0.47 -0.37 -0.05 -0.27 -0.25 0.52 -1.03 1.35 -1.33 3.17 -2.11 5.28 -2.28 l1.72 -0.15 0 3.07 0 3.07 -1.84 0.15 c-1.03 0.10 -2.18 0.34 -2.58 0.54 -0.83 0.44 -0.98 0.44 -0.98 0.12z"/>
  <path d="M202.02 169.89 l-0.05 -2.04 2.70 0 c2.63 0 2.70 0.02 2.70 0.54 0 0.42 -0.07 0.47 -0.29 0.25 -0.42 -0.42 -4.22 -0.39 -4.56 0.02 -0.15 0.17 -0.32 0.98 -0.37 1.77 -0.07 1.30 -0.07 1.23 -0.12 -0.54z"/>
  <path d="M242.26 171.39 c-1.91 -1.35 -1.55 -4.42 0.69 -5.57 2.04 -1.06 4.66 0.52 4.66 2.77 0 1.03 -0.25 1.96 -0.49 1.96 -0.10 0 -0.07 -0.42 0.07 -0.93 0.22 -0.81 0.17 -1.06 -0.39 -1.94 -0.76 -1.20 -1.30 -1.55 -2.48 -1.60 -1.47 -0.05 -3.09 1.35 -3.09 2.65 0 1.06 0.34 1.77 1.18 2.48 0.76 0.64 0.66 0.74 -0.15 0.17z"/>
  <path d="M133.16 123.81 c-0.22 -0.34 -1.08 -1.40 -1.89 -2.36 -0.83 -0.96 -1.45 -1.77 -1.40 -1.84 0.22 -0.20 1.40 0.88 1.57 1.42 0.07 0.29 0.64 1.10 1.23 1.84 0.59 0.74 1.08 1.37 1.08 1.42 0 0.27 -0.22 0.10 -0.59 -0.49z"/>
  <path d="M132.47 120.64 c-0.69 -0.83 -0.86 -1.37 -0.49 -1.37 0.17 0 1.20 1.23 1.62 1.91 0.39 0.66 -0.52 0.25 -1.13 -0.54z"/>
  <path d="M79.02 83.49 c0 -0.37 1.01 -0.79 1.87 -0.79 0.32 0 0.59 0.12 0.59 0.25 0 0.22 -0.91 0.37 -1.69 0.25 -0.20 -0.02 -0.44 0.10 -0.54 0.29 -0.17 0.25 -0.22 0.25 -0.22 0z"/>
  <path d="M184.54 57.87 c-1.25 -2.87 -2.43 -5.47 -2.60 -5.77 -0.44 -0.69 -1.64 -0.74 -6.36 -0.20 -3.58 0.39 -5.45 0.47 -4.66 0.15 0.79 -0.32 5.57 -0.81 8.37 -0.86 l2.58 -0.02 2.55 5.87 c1.42 3.24 2.53 5.91 2.48 5.96 -0.05 0.05 -1.10 -2.26 -2.36 -5.13z"/>
  <path d="M86.04 52.07 c-0.07 -0.15 -0.07 -0.44 0.02 -0.66 0.12 -0.39 0.44 -0.42 3.36 -0.25 5.23 0.29 6.18 0.61 1.45 0.47 -3.75 -0.10 -4.25 -0.07 -4.44 0.29 -0.15 0.25 -0.29 0.32 -0.39 0.15z"/>
  <path d="M133.01 21.52 l0 -3.12 0.98 0 c0.98 0 0.98 0 0.96 0.93 -0.05 0.76 -0.07 0.79 -0.15 0.22 -0.10 -0.54 -0.22 -0.69 -0.64 -0.61 -0.52 0.07 -0.54 0.25 -0.71 2.72 -0.07 1.47 -0.22 2.72 -0.29 2.82 -0.07 0.07 -0.15 -1.28 -0.15 -2.97z"/>
 </g>
</svg>