<?xml version="1.0" encoding="utf-8"?>
<!DOCTYPE svg PUBLIC "-//W3C//DTD SVG 1.0//EN" "http://www.w3.org/TR/2001/REC-SVG-20010904/DTD/svg10.dtd">
<svg version="1.0" xmlns="http://www.w3.org/2000/svg" width="141px" height="141px" viewBox="0 0 141 141" preserveAspectRatio="xMidYMid meet">
 <g fill="#fefefe">
  <path d="M0 70.50 l0 -70.50 70.50 0 70.50 0 0 70.50 0 70.50 -70.50 0 -70.50 0 0 -70.50z m98.04 47.33 c0.50 -0.14 1.14 -0.30 1.45 -0.36 0.52 -0.11 1.16 -0.33 2.82 -0.98 0.83 -0.32 2.75 -1.27 3.30 -1.64 0.19 -0.12 0.45 -0.28 0.58 -0.36 2.15 -1.28 4.93 -3.90 6.54 -6.17 1.75 -2.46 3.14 -5.80 3.70 -8.84 0.25 -1.32 0.26 -2.70 0.26 -31.88 l0 -30.50 -0.32 -1.56 c-1.16 -5.70 -4.13 -10.51 -8.55 -13.78 -2.75 -2.04 -5.66 -3.32 -9.07 -4.01 -1.40 -0.28 -1.56 -0.28 -34.22 -0.25 l-32.80 0.04 -1.58 0.44 c-4.14 1.14 -7.31 2.96 -10.27 5.89 -3.15 3.14 -5.14 6.76 -6.14 11.22 l-0.32 1.45 0 31.05 c0 34.80 -0.10 31.60 1.01 34.91 2.73 8.26 10.75 14.61 19.58 15.48 0.65 0.07 15.12 0.11 32.15 0.10 28.98 -0.03 31.04 -0.04 31.88 -0.26z"/>
  <path d="M63.95 97.56 c-1.89 -0.41 -3.66 -1.76 -4.56 -3.44 l-0.44 -0.84 -2.52 -1.25 c-3.14 -1.57 -4.97 -2.33 -8.30 -3.41 l-2.62 -0.87 -0.04 -0.55 c-0.04 -0.61 0.28 -1.38 0.81 -1.94 0.28 -0.30 0.39 -0.32 1.35 -0.25 2.02 0.12 7.17 2.09 11.66 4.43 l2.26 1.18 0.56 0.99 c1.10 1.90 2.22 2.62 4.05 2.63 0.92 0.01 1.24 -0.04 1.89 -0.36 0.96 -0.45 1.73 -1.24 2.33 -2.37 l0.45 -0.87 1.96 -1.06 c4.24 -2.26 9.96 -4.46 12.01 -4.60 0.92 -0.06 1.03 -0.04 1.35 0.26 0.19 0.18 0.48 0.56 0.62 0.84 0.30 0.58 0.36 1.61 0.10 1.68 -1.60 0.45 -5.77 1.93 -7.30 2.56 -2.29 0.98 -5.74 2.77 -6.04 3.13 -0.11 0.14 -0.43 0.61 -0.69 1.06 -0.85 1.46 -2.37 2.57 -4.13 3.04 -0.94 0.25 -3.61 0.25 -4.75 0z"/>
  <path d="M65.06 92.68 c-0.23 -0.14 -0.81 -0.83 -1.29 -1.54 -1.23 -1.80 -1.69 -2.38 -2.91 -3.58 -1.86 -1.82 -5.41 -3.99 -8.74 -5.34 -1.57 -0.63 -1.58 -0.65 -1.58 -1.10 0 -0.45 0.47 -1.89 0.72 -2.18 0.25 -0.30 1.50 -0.17 2.66 0.29 4.52 1.79 8.96 4.72 11.02 7.26 0.39 0.47 0.83 1.02 1.01 1.21 l0.30 0.36 0.39 -0.48 c2.16 -2.75 4.75 -4.82 8.43 -6.73 3.55 -1.85 5.56 -2.45 6.09 -1.83 0.29 0.33 0.66 1.50 0.66 2.09 0 0.50 0 0.51 -1.13 0.96 -3.92 1.60 -7.67 3.92 -9.56 5.95 -0.47 0.51 -1.36 1.67 -2 2.59 -1.42 2.09 -1.73 2.34 -2.82 2.34 -0.55 0 -0.95 -0.08 -1.23 -0.26z"/>
  <path d="M41.86 86.67 c-1.69 -0.37 -5.71 -1.02 -7.71 -1.21 -3.54 -0.36 -5.80 -0.40 -7.82 -0.17 -2.42 0.29 -2.23 0.32 -2.23 -0.39 0 -0.58 0.78 -2.49 4.96 -12.09 l0.58 -1.35 0.58 0 c0.52 0 0.59 0.06 1.05 0.72 0.45 0.67 0.48 0.76 0.47 1.89 l0 1.18 -1.40 3.24 c-0.77 1.78 -1.40 3.26 -1.40 3.32 0 0.04 1.20 0.12 2.66 0.17 2.91 0.10 5.11 0.32 8.36 0.87 2.16 0.36 2.64 0.51 3.04 0.96 0.37 0.43 0.84 1.89 0.78 2.48 -0.04 0.51 -0.07 0.54 -0.52 0.56 -0.26 0.01 -0.88 -0.07 -1.38 -0.18z"/>
  <path d="M88.58 86.67 c-0.29 -0.76 0.61 -2.91 1.36 -3.25 1.16 -0.54 7.11 -1.32 10.96 -1.45 1.45 -0.04 2.64 -0.12 2.64 -0.18 0 -0.06 -0.25 -0.67 -0.56 -1.39 -0.32 -0.72 -0.96 -2.29 -1.46 -3.50 -0.84 -2.08 -0.90 -2.24 -0.83 -3.07 0.04 -0.63 0.18 -1.05 0.47 -1.51 0.39 -0.63 0.41 -0.65 1.07 -0.65 l0.67 0 1.29 2.96 c3.97 9.16 4.30 9.94 4.30 10.42 l0 0.50 -0.78 -0.10 c-0.44 -0.04 -1.39 -0.15 -2.11 -0.23 -2.84 -0.33 -8.96 0.22 -14.07 1.25 -2.31 0.47 -2.84 0.51 -2.96 0.19z"/>
  <path d="M44.89 79.92 c-3 -0.70 -7.71 -1.40 -10.53 -1.56 l-1.65 -0.08 -0.04 -0.66 c-0.04 -0.61 0.14 -1.07 1.71 -4.61 0.96 -2.18 1.93 -4.28 2.15 -4.67 l0.40 -0.73 0.88 0 c1.35 0 2 0.36 2 1.10 0 0.34 -0.92 2.64 -2.19 5.43 -0.25 0.52 -0.41 1.03 -0.37 1.12 0.03 0.10 0.54 0.21 1.21 0.26 1.40 0.12 5.37 0.78 7.13 1.20 1.07 0.25 1.39 0.39 1.75 0.74 0.41 0.41 0.45 0.54 0.45 1.27 0 0.44 -0.08 0.95 -0.18 1.14 -0.23 0.47 -0.90 0.48 -2.71 0.06z"/>
  <path d="M84.71 79.95 c-0.10 -0.21 -0.17 -0.70 -0.17 -1.10 0 -0.94 0.40 -1.57 1.17 -1.83 1.34 -0.45 7.70 -1.56 9.02 -1.56 0.22 0 0.43 -0.06 0.47 -0.12 0.06 -0.07 -0.47 -1.43 -1.16 -3.02 -1.01 -2.33 -1.24 -3 -1.24 -3.55 0 -0.51 0.07 -0.72 0.26 -0.84 0.32 -0.21 1.82 -0.39 2.26 -0.26 0.34 0.08 0.83 1.02 3.21 6.28 1.09 2.41 1.21 2.77 1.23 3.51 l0 0.83 -1.38 0.10 c-3.33 0.25 -7.11 0.76 -9.86 1.36 -1.09 0.23 -2.35 0.45 -2.81 0.50 -0.80 0.07 -0.84 0.06 -1.01 -0.29z"/>
  <path d="M69.67 72.25 c0 -6 -0.03 -6.24 -0.98 -7.31 -0.77 -0.87 -1.50 -1.24 -2.48 -1.24 -1.49 0.01 -2.89 1.14 -3.36 2.70 -0.17 0.58 -0.21 1.64 -0.21 5.85 l0 5.14 -0.50 0 c-0.37 0 -0.78 -0.19 -1.68 -0.78 -1.23 -0.81 -4.75 -2.66 -5.08 -2.66 -0.19 0 -0.19 0.07 -0.23 -4.27 -0.03 -2.62 -0.10 -2.88 -0.87 -3.59 -0.98 -0.92 -2.01 -0.91 -2.89 0.04 -0.62 0.66 -0.73 1.20 -0.73 3.62 l0 2.27 -0.45 0 c-0.40 0 -3.53 -0.62 -3.62 -0.73 -0.01 -0.01 -0.06 -2.38 -0.07 -5.25 l-0.04 -5.23 1.10 -0.76 c0.59 -0.41 1.91 -1.32 2.93 -2.04 2.35 -1.64 2.37 -1.64 4.24 -0.36 0.74 0.51 1.72 1.18 2.16 1.49 l0.81 0.58 0.81 -0.56 c0.58 -0.40 0.76 -0.58 0.59 -0.61 -0.14 -0.03 -0.65 -0.32 -1.16 -0.65 -2.95 -1.90 -7.70 -3.54 -10.67 -3.69 l-0.67 -0.03 -2.35 5.30 c-1.31 2.92 -2.55 5.66 -2.75 6.10 l-0.39 0.80 -0.77 -0.04 -0.78 -0.04 -0.15 -0.63 c-0.08 -0.34 -0.26 -0.81 -0.39 -1.06 -0.37 -0.72 -0.26 -1.20 0.76 -3.50 0.54 -1.21 0.95 -2.22 0.92 -2.23 -0.01 -0.03 -0.48 -0.01 -1.03 0.03 l-0.98 0.06 -0.28 0.65 c-0.95 2.20 -3.50 7.95 -3.90 8.76 -0.63 1.28 -1.40 1.89 -2.31 1.83 -0.56 -0.04 -0.65 -0.08 -0.94 -0.59 -0.18 -0.30 -0.32 -0.74 -0.32 -0.99 0 -0.26 0.73 -2.08 1.85 -4.61 2.82 -6.43 3.40 -7.66 3.62 -7.85 0.17 -0.12 0.95 -0.19 2.81 -0.22 2.35 -0.04 2.59 -0.03 2.63 0.19 0.01 0.12 0.56 -0.95 1.20 -2.38 l1.17 -2.63 0.90 -0.08 c1.07 -0.11 3.87 0.11 5.49 0.40 2.40 0.45 4.43 1.14 6.71 2.27 1.21 0.61 2.38 1.25 2.62 1.43 0.39 0.30 0.41 0.40 0.45 1.45 0.03 0.62 0.08 1.12 0.12 1.12 0.03 0 0.29 -0.15 0.56 -0.34 l0.51 -0.34 -0.45 0 -0.44 0 0 -5.11 0 -5.11 -0.55 -0.51 c-0.48 -0.43 -0.55 -0.58 -0.55 -1.09 0 -0.43 0.06 -0.58 0.21 -0.58 0.81 0 2.62 -1.45 4.14 -3.35 1.18 -1.49 1.34 -1.78 1.42 -2.92 l0.08 -0.96 0.78 -0.04 c0.74 -0.04 0.80 -0.03 0.88 0.32 0.04 0.19 0.04 0.56 0 0.83 -0.14 0.70 0.25 1.45 1.49 2.93 1.28 1.53 2.67 2.71 3.57 3.03 0.63 0.22 0.65 0.25 0.65 0.81 0 0.51 -0.07 0.63 -0.55 1.02 l-0.55 0.44 0 5.14 0 5.14 -0.40 0.04 -0.39 0.04 0.52 0.37 0.54 0.39 0 -1.07 c0 -0.73 0.07 -1.16 0.21 -1.36 0.51 -0.73 4.31 -2.55 6.83 -3.28 2.51 -0.73 3.69 -0.91 6.54 -0.99 l2.62 -0.08 1.16 2.63 c1.07 2.41 1.17 2.60 1.35 2.34 0.19 -0.26 0.30 -0.26 2.29 -0.18 1.14 0.04 2.31 0.11 2.62 0.17 0.62 0.08 0.30 -0.52 3.68 7.19 2.35 5.40 2.44 5.66 1.87 6.50 -0.26 0.40 -0.40 0.47 -0.94 0.51 -0.52 0.03 -0.70 -0.03 -1.14 -0.37 -0.28 -0.22 -0.63 -0.56 -0.78 -0.76 -0.29 -0.36 -1.69 -3.48 -3.46 -7.66 -0.52 -1.25 -1.06 -2.35 -1.18 -2.44 -0.21 -0.17 -1.96 -0.26 -1.96 -0.11 0 0.04 0.44 1.03 0.96 2.20 1.06 2.34 1.14 2.82 0.69 3.72 -0.15 0.30 -0.28 0.74 -0.28 0.99 l0 0.45 -1.03 0 -1.02 0 -0.12 -0.45 c-0.07 -0.25 -1.24 -2.97 -2.59 -6.07 l-2.46 -5.60 -0.76 0.08 c-3.58 0.43 -7.38 1.73 -10.31 3.55 -0.51 0.30 -1.13 0.59 -1.40 0.63 l-0.51 0.08 0.94 0.65 0.92 0.65 1.97 -1.38 c2.37 -1.65 2.34 -1.64 2.93 -1.64 0.37 0 1.03 0.40 3.41 2.04 l2.95 2.04 0 0.51 c-0.01 0.28 -0.03 2.64 -0.04 5.23 l-0.03 4.74 -1.68 0.37 c-0.94 0.19 -1.86 0.36 -2.07 0.36 l-0.36 0 -0.06 -2.37 c-0.04 -2.24 -0.07 -2.42 -0.39 -3 -0.43 -0.74 -1.12 -1.24 -1.76 -1.24 -0.70 0 -1.56 0.55 -1.96 1.25 -0.32 0.58 -0.33 0.73 -0.40 3.86 l-0.08 3.26 -1.93 0.96 c-1.06 0.54 -2.55 1.38 -3.29 1.87 -1.01 0.66 -1.50 0.91 -1.83 0.91 l-0.45 0 0 -5.27z m-4.45 -17.86 c0.48 -0.37 1.46 -0.37 1.94 0.01 l0.37 0.29 0.04 -2.31 c0.04 -2.53 -0.04 -2.92 -0.66 -3.36 -0.50 -0.36 -0.98 -0.34 -1.43 0.01 -0.69 0.55 -0.77 0.88 -0.77 3.36 0 1.25 0.04 2.27 0.08 2.27 0.04 0 0.23 -0.12 0.43 -0.28z"/>
 </g>
 <g fill="#063464">
  <path d="M33.60 118.40 c-5.47 -0.54 -10.88 -3.26 -14.80 -7.46 -2.74 -2.93 -4.67 -6.66 -5.54 -10.70 -0.23 -1.12 -0.25 -2.75 -0.25 -32.63 l0 -31.46 0.32 -1.45 c1.45 -6.43 5.27 -11.64 10.97 -14.93 1.46 -0.83 3.48 -1.65 5.44 -2.19 l1.58 -0.44 33.21 -0.04 c33.07 -0.03 33.23 -0.03 34.63 0.25 9.07 1.82 15.75 8.56 17.63 17.79 l0.32 1.56 0 30.91 c0 29.59 -0.01 30.97 -0.26 32.29 -0.56 3.04 -1.96 6.38 -3.70 8.84 -1.61 2.27 -4.39 4.89 -6.54 6.17 -0.12 0.08 -0.39 0.23 -0.58 0.36 -0.55 0.37 -2.48 1.32 -3.30 1.64 -1.67 0.65 -2.30 0.87 -2.82 0.98 -0.30 0.06 -0.95 0.22 -1.45 0.36 -0.84 0.22 -2.91 0.23 -32.29 0.26 -17.27 0.01 -31.92 -0.03 -32.56 -0.10z m34.69 -21.26 c1.76 -0.47 3.28 -1.58 4.13 -3.04 0.26 -0.45 0.58 -0.92 0.69 -1.06 0.30 -0.36 3.76 -2.15 6.04 -3.11 1.91 -0.83 6.69 -2.49 7.12 -2.49 0.12 0 0.25 -0.08 0.29 -0.19 0.10 -0.25 -0.37 -1.17 -0.83 -1.58 -0.48 -0.44 -0.99 -0.36 -4.05 0.66 -2.84 0.95 -5.70 2.19 -8.48 3.68 l-1.96 1.06 -0.45 0.87 c-0.59 1.13 -1.36 1.91 -2.33 2.37 -0.70 0.33 -0.94 0.37 -2.30 0.37 -1.31 -0.01 -1.61 -0.06 -2.19 -0.34 -0.92 -0.44 -1.58 -1.12 -2.27 -2.30 l-0.56 -0.99 -2.26 -1.18 c-3.91 -2.04 -9.40 -4.21 -11.25 -4.43 -0.56 -0.07 -0.67 -0.03 -0.99 0.30 -0.45 0.50 -0.87 1.42 -0.70 1.57 0.07 0.06 1.06 0.40 2.19 0.76 2.97 0.95 5.55 2 8.58 3.50 l2.66 1.32 0.44 0.83 c0.90 1.69 2.67 3.04 4.56 3.46 1.13 0.25 3.02 0.25 3.92 0z m-1.21 -4.90 c0.22 -0.15 0.84 -0.92 1.36 -1.68 0.65 -0.94 1.21 -1.58 1.68 -1.91 0.59 -0.44 0.65 -0.52 0.37 -0.52 -0.29 0 -0.26 -0.07 0.36 -0.70 1.85 -1.90 5.49 -4.16 9.24 -5.70 0.67 -0.28 1.24 -0.52 1.27 -0.55 0.11 -0.11 -0.47 -1.61 -0.70 -1.82 -0.23 -0.22 -0.30 -0.22 -1.17 0.08 -1.28 0.45 -4.30 1.90 -5.85 2.82 -2.55 1.50 -4.93 3.58 -6.54 5.70 -0.41 0.54 -0.80 0.99 -0.85 0.99 -0.06 0 -0.48 -0.48 -0.94 -1.06 -1.69 -2.18 -2.86 -3.25 -5.26 -4.85 -2.22 -1.47 -5.65 -3.18 -7.53 -3.73 -0.74 -0.22 -0.90 -0.11 -1.27 0.96 -0.32 0.95 -0.41 0.84 1.29 1.53 3.30 1.34 6.82 3.48 8.76 5.33 0.59 0.58 1.09 1.10 1.09 1.16 0 0.06 -0.11 0.11 -0.23 0.11 -0.12 0 0.06 0.21 0.43 0.47 0.44 0.30 0.98 0.92 1.57 1.80 1.24 1.83 2 2.24 2.93 1.57z m-22.40 -2.48 c0.43 -0.50 0.44 -0.77 0.08 -1.23 -0.15 -0.19 -0.28 -0.52 -0.29 -0.76 -0.01 -0.33 -0.04 -0.34 -0.08 -0.11 -0.04 0.19 -0.19 0.34 -0.40 0.40 -0.37 0.10 -1.02 0.80 -1.02 1.12 0 0.29 0.76 1.01 1.07 1.01 0.15 0 0.44 -0.19 0.63 -0.43z m44.32 0.15 c0.48 -0.39 0.58 -0.77 0.32 -1.17 -0.29 -0.43 -1.32 -0.99 -1.32 -0.72 0 0.11 -0.12 0.30 -0.28 0.44 -0.40 0.36 -0.36 0.98 0.08 1.38 0.45 0.41 0.73 0.43 1.20 0.07z m-45.89 -4.57 c-0.54 -1.51 -0.73 -1.62 -3.58 -2.09 -3.35 -0.56 -5.49 -0.77 -8.58 -0.87 -2 -0.06 -2.85 -0.12 -2.80 -0.23 0.03 -0.08 0.74 -1.76 1.58 -3.72 0.84 -1.96 1.53 -3.65 1.53 -3.75 0 -0.11 0.11 -0.19 0.26 -0.19 0.32 0 0.43 0.76 0.43 2.93 0 1.50 0 1.50 -0.43 1.89 -0.40 0.39 -0.41 0.41 -0.21 0.81 0.29 0.54 0.69 0.66 1.16 0.33 0.21 -0.14 0.59 -0.29 0.85 -0.33 l0.48 -0.08 -0.44 -0.03 c-0.30 -0.01 -0.45 -0.08 -0.45 -0.21 0 -0.11 -0.18 -0.39 -0.40 -0.59 l-0.40 -0.39 -0.06 -3.06 -0.07 -3.04 0.40 -0.59 c0.56 -0.84 0.52 -1.09 -0.17 -1.09 -0.41 0 -0.65 -0.10 -0.90 -0.34 l-0.34 -0.33 0 0.37 c0 0.21 -0.12 0.62 -0.28 0.92 -0.15 0.30 -0.28 0.47 -0.28 0.37 0 -0.10 -0.08 -0.17 -0.19 -0.17 -0.11 0 -0.44 0.58 -0.77 1.35 -2.71 6.25 -4.96 11.53 -4.96 11.65 0 0.12 0.39 0.11 1.56 -0.03 3.46 -0.41 10.69 0.21 16.21 1.40 0.50 0.10 0.95 0.14 1.02 0.07 0.07 -0.07 0 -0.47 -0.19 -0.98z m48.33 0.65 c1.91 -0.39 4.76 -0.80 7.16 -1.05 1.97 -0.21 7.81 -0.22 8.74 -0.03 0.37 0.08 0.70 0.14 0.73 0.12 0.01 -0.03 -0.65 -1.62 -1.47 -3.54 -4.16 -9.61 -4.08 -9.42 -4.35 -9.42 -0.30 0 -0.76 -0.83 -0.76 -1.36 0 -0.29 -0.01 -0.29 -0.26 0.04 -0.21 0.28 -0.34 0.32 -0.95 0.28 l-0.70 -0.06 0.41 0.74 0.40 0.76 0 3.21 0 3.22 -0.41 0.36 c-0.22 0.18 -0.41 0.43 -0.41 0.52 0 0.11 -0.17 0.22 -0.37 0.25 -0.37 0.06 -0.37 0.06 0.04 0.08 0.23 0 0.56 0.14 0.74 0.29 0.41 0.36 0.63 0.34 1.05 -0.07 0.32 -0.32 0.33 -0.36 0.14 -0.73 -0.11 -0.22 -0.30 -0.47 -0.41 -0.56 -0.25 -0.21 -0.28 -0.99 -0.12 -3.21 0.07 -1.17 0.11 -1.35 0.33 -1.35 0.15 0 0.30 0.18 0.41 0.52 0.12 0.39 1.68 4.12 2.96 7.13 0.06 0.11 -0.78 0.18 -2.80 0.23 -3.99 0.11 -9.97 0.88 -11.17 1.45 -0.45 0.21 -1.02 1.09 -1.28 2.01 -0.15 0.50 -0.06 0.65 0.33 0.56 0.17 -0.03 1.07 -0.22 2.02 -0.41z m-45.89 -0.99 l0.70 -0.72 1.69 -0.12 1.71 -0.12 -1.75 -0.03 -1.76 -0.01 0 -0.45 0 -0.45 -0.65 0.10 c-0.87 0.14 -1.69 0.43 -1.69 0.61 0.01 0.28 0.54 1.31 0.69 1.31 0.07 0 0.14 0.29 0.15 0.66 0.01 0.52 0.03 0.58 0.11 0.30 0.07 -0.19 0.43 -0.67 0.80 -1.06z m42.60 -0.15 c0.22 -0.25 0.40 -0.54 0.40 -0.65 0 -0.10 0.04 -0.28 0.08 -0.40 0.07 -0.17 0 -0.22 -0.23 -0.22 -0.18 -0.01 -0.48 -0.10 -0.67 -0.21 -0.19 -0.11 -0.58 -0.19 -0.85 -0.21 -0.51 0 -0.52 0.01 -0.52 0.50 l0 0.50 -1.54 -0.08 c-0.85 -0.04 -1.96 -0.03 -2.45 0.04 -0.74 0.10 -0.48 0.12 1.49 0.14 l2.38 0.01 0.67 0.69 c0.39 0.37 0.70 0.76 0.70 0.85 0.01 0.10 0.06 0.03 0.08 -0.17 0.04 -0.18 0.25 -0.54 0.47 -0.80z m-37.43 -0.67 c-0.18 -0.03 -0.48 -0.03 -0.69 0 -0.22 0.03 -0.07 0.06 0.30 0.06 0.39 0 0.55 -0.03 0.39 -0.06z m-0.81 -4.05 c0.19 -0.23 0.36 -0.52 0.36 -0.66 0 -0.12 0.10 -0.36 0.21 -0.52 0.19 -0.28 0.18 -0.29 -0.39 -0.36 -0.32 -0.06 -0.83 -0.14 -1.13 -0.21 l-0.55 -0.11 -0.03 1.14 -0.03 1.14 0.59 0 c0.51 0 0.66 -0.07 0.96 -0.43z m34.18 0 c-0.04 -0.23 -0.08 -0.74 -0.08 -1.13 l0 -0.69 -0.58 0.10 c-0.33 0.04 -0.81 0.12 -1.09 0.17 l-0.51 0.08 0.26 0.70 c0.33 0.92 0.67 1.20 1.46 1.20 l0.63 0 -0.10 -0.43z m-49.27 0.06 c-0.14 -0.03 -0.36 -0.03 -0.48 0 -0.14 0.04 -0.03 0.07 0.23 0.07 0.26 0 0.37 -0.03 0.25 -0.07z m12.38 -0.74 c0.30 -0.58 0.22 -1.07 -0.28 -1.57 -0.36 -0.36 -0.67 -0.50 -1.75 -0.74 -1.85 -0.43 -4.86 -0.94 -6.94 -1.17 -0.98 -0.12 -1.79 -0.23 -1.82 -0.26 -0.04 -0.03 0.43 -1.17 1.03 -2.52 2 -4.54 1.96 -4.42 1.71 -4.68 -0.30 -0.29 -0.80 -0.47 -1.35 -0.47 -0.41 0 -0.51 0.07 -0.87 0.73 -0.72 1.27 -3.91 8.61 -3.86 8.87 0.04 0.22 0.26 0.26 1.69 0.33 2.81 0.15 7.48 0.84 10.53 1.56 0.80 0.18 1.51 0.32 1.58 0.30 0.08 -0.01 0.22 -0.18 0.30 -0.37z m40.92 -0.12 c2.80 -0.59 6.58 -1.12 9.86 -1.35 l1.38 -0.10 -0.01 -0.43 c-0.03 -0.63 -3.86 -9.07 -4.23 -9.31 -0.21 -0.14 -1.16 -0.01 -1.58 0.21 -0.52 0.26 -0.54 0.25 2.53 7.22 0.08 0.17 0.07 0.18 -2.91 0.54 -1.94 0.23 -6.14 1.03 -7.02 1.34 -0.61 0.21 -1.17 0.90 -1.17 1.42 0 0.18 0.07 0.48 0.17 0.69 0.19 0.41 -0.06 0.43 2.99 -0.22z m-16.56 -3.11 c0.74 -0.50 2.23 -1.34 3.29 -1.87 l1.93 -0.96 0.08 -3.26 c0.07 -3.13 0.08 -3.28 0.40 -3.86 0.58 -1.01 1.89 -1.56 2.99 -1.27 0.73 0.19 1.23 0.61 1.58 1.29 0.28 0.52 0.32 0.84 0.36 2.96 0.06 2.13 0.08 2.37 0.28 2.31 0.14 -0.04 0.87 -0.21 1.65 -0.37 l1.40 -0.30 0 -4.74 c0 -2.59 0.01 -4.76 0.04 -4.82 0.01 -0.06 -0.62 -0.55 -1.42 -1.10 -4.42 -3.06 -4.50 -3.10 -4.76 -2.96 -0.15 0.08 -1.25 0.83 -2.45 1.67 l-2.18 1.53 -0.37 -0.26 c-0.73 -0.51 -6.03 -4.25 -7.01 -4.94 -0.54 -0.40 -1.07 -0.72 -1.17 -0.72 -0.10 0 -0.90 0.51 -1.76 1.14 -3.29 2.38 -6.40 4.54 -6.60 4.60 -0.12 0.03 -1.14 -0.59 -2.29 -1.38 -1.14 -0.78 -2.22 -1.51 -2.38 -1.60 -0.36 -0.19 -0.04 -0.37 -3.98 2.35 l-2.26 1.56 0.01 4.82 c0.01 2.64 0.04 4.82 0.07 4.85 0.03 0.04 3.08 0.73 3.21 0.73 0.01 0 0.04 -1.03 0.04 -2.30 0 -2.59 0.14 -3.11 0.95 -3.80 0.41 -0.34 1.20 -0.65 1.67 -0.65 0.87 0 2.01 0.73 2.44 1.57 0.22 0.41 0.32 2.37 0.32 6.18 0 0.66 0.06 0.92 0.18 0.92 0.33 0 3.86 1.85 5.08 2.66 0.65 0.43 1.23 0.78 1.27 0.78 0.04 0 0.08 -2.31 0.08 -5.14 0 -5.70 0.04 -6.06 0.87 -7.15 0.25 -0.33 0.78 -0.77 1.20 -1.01 0.67 -0.36 0.90 -0.41 1.93 -0.41 1.40 0 2 0.26 2.88 1.25 0.95 1.07 0.98 1.31 0.98 7.31 0 2.91 0.01 5.27 0.04 5.27 0.03 0 0.66 -0.41 1.42 -0.91z m-14.76 -0.41 c-0.70 -0.43 -0.88 -0.41 -0.88 0.06 0 0.36 0.01 0.37 0.72 0.32 l0.72 -0.04 -0.55 -0.33z m19.77 0.01 l0 -0.48 -0.62 0.30 -0.63 0.30 0.52 0.17 c0.29 0.10 0.56 0.17 0.63 0.18 0.06 0.01 0.10 -0.21 0.10 -0.47z m-31.63 -3.40 l0.58 -0.01 -0.69 -0.08 c-0.65 -0.08 -0.69 -0.11 -0.84 -0.63 -0.10 -0.30 -0.19 -1.07 -0.21 -1.72 -0.03 -0.90 -0.04 -0.99 -0.08 -0.41 -0.07 1.27 -0.12 1.38 -0.63 1.38 -0.25 0 -0.52 -0.07 -0.61 -0.15 -0.10 -0.10 -0.17 0.11 -0.23 0.73 -0.10 0.83 -0.08 0.88 0.26 1.17 0.23 0.21 0.54 0.32 0.88 0.32 0.33 0 0.61 0.08 0.72 0.23 0.18 0.21 0.19 0.17 0.23 -0.28 0.04 -0.50 0.06 -0.51 0.62 -0.54z m45.16 0.15 c0.29 -0.32 0.37 -0.51 0.30 -0.73 -0.06 -0.15 -0.14 -0.51 -0.19 -0.77 -0.06 -0.32 -0.12 -0.43 -0.19 -0.30 -0.07 0.08 -0.36 0.17 -0.65 0.17 l-0.52 0 -0.10 -1.06 c-0.14 -1.72 -0.17 -1.72 -0.21 0.03 -0.04 2.37 -0.01 2.31 -1.17 2.44 -1.38 0.15 -1.57 0.25 -0.30 0.15 l1.06 -0.07 0 0.40 0 0.41 0.80 -0.11 c0.63 -0.08 0.85 -0.19 1.17 -0.55z m-57.02 -3.19 c0.41 -0.32 0.73 -0.74 1.06 -1.40 0.40 -0.81 2.96 -6.58 3.90 -8.77 0.29 -0.66 0.29 -0.66 0.94 -0.66 1.34 0 1.49 -0.08 2.01 -1.12 0.26 -0.52 0.47 -0.98 0.47 -1.03 0 -0.17 -4.35 0.01 -4.59 0.19 -0.22 0.19 -0.80 1.42 -3.62 7.85 l-1.85 4.17 0.22 0.44 c0.48 0.95 0.61 0.98 1.46 0.33z m67.57 0.10 c0.15 -0.19 0.32 -0.47 0.36 -0.59 0.06 -0.21 -2.78 -6.93 -4.79 -11.33 -0.56 -1.21 -0.36 -1.14 -3.28 -1.28 -2 -0.08 -2.04 -0.06 -1.45 1.17 l0.43 0.90 1.06 0.07 c0.58 0.04 1.12 0.14 1.20 0.21 0.07 0.08 0.56 1.16 1.09 2.41 1.79 4.23 3.17 7.30 3.46 7.66 0.36 0.47 1.24 1.16 1.47 1.16 0.10 0 0.30 -0.17 0.45 -0.36z m-56.76 -1.80 c-0.04 -0.14 -0.07 -0.03 -0.07 0.23 0 0.26 0.03 0.37 0.07 0.25 0.03 -0.14 0.03 -0.36 0 -0.48z m60.81 -0.84 c0.48 -0.45 0.47 -0.84 -0.04 -1.34 -0.36 -0.34 -0.47 -0.37 -0.78 -0.26 -0.52 0.18 -0.84 0.81 -0.77 1.50 l0.07 0.55 0.56 -0.04 c0.39 -0.04 0.70 -0.18 0.96 -0.41z m-75.42 -0.15 c0.21 -0.78 -0.25 -1.53 -0.95 -1.53 -0.32 0 -0.92 0.70 -0.92 1.06 0 0.50 0.62 1.01 1.23 1.01 0.47 0 0.52 -0.04 0.65 -0.54z m8.92 0.18 l0.63 -0.10 0 -0.67 c0 -0.83 -0.45 -1.39 -1.06 -1.32 -0.59 0.07 -0.88 0.61 -0.78 1.46 0.10 0.78 0.08 0.78 1.21 0.63z m6.28 -0.99 c0.85 -0.30 1.05 -1.29 0.34 -1.76 -0.61 -0.40 -1.28 0.01 -1.51 0.94 -0.07 0.26 -0.01 0.37 0.26 0.50 0.30 0.14 0.36 0.26 0.39 0.81 0.01 0.59 0.03 0.61 0.07 0.15 0.04 -0.41 0.12 -0.52 0.45 -0.63z m50.99 0.36 c0.10 -0.83 -0.11 -1.29 -0.65 -1.43 -0.67 -0.17 -1.32 0.61 -1.32 1.58 0 0.37 0.04 0.41 0.52 0.47 1.42 0.15 1.36 0.18 1.45 -0.62z m-6.58 -0.61 c0.39 -0.10 0.40 -0.15 0.19 -0.70 -0.19 -0.52 -0.66 -1.01 -0.98 -1.01 -0.37 0 -0.94 0.62 -0.94 1.01 0 0.33 0.43 0.81 0.87 0.96 0.12 0.06 0.23 0.17 0.25 0.26 0 0.10 0.06 0.04 0.12 -0.12 0.07 -0.17 0.29 -0.34 0.48 -0.40z m-47.77 -0.43 c0.21 -0.44 1.45 -3.18 2.74 -6.10 l2.37 -5.30 1.02 0.01 c3.10 0.04 8.01 1.68 11.15 3.70 l0.92 0.59 0.37 -0.39 c0.34 -0.36 0.37 -0.47 0.32 -1.12 -0.10 -0.94 -0.25 -1.06 -3.07 -2.46 -2.27 -1.13 -4.31 -1.82 -6.71 -2.27 -1.47 -0.26 -3.98 -0.47 -4.86 -0.39 l-0.70 0.07 -2.71 6.11 -2.73 6.10 0.29 0.55 c0.15 0.30 0.28 0.65 0.28 0.76 0 0.50 0.28 0.91 0.61 0.91 0.28 0 0.41 -0.15 0.72 -0.78z m51.55 0.19 c0 -0.25 0.12 -0.69 0.28 -0.99 0.15 -0.30 0.28 -0.59 0.28 -0.65 0 -0.07 -0.47 -1.16 -1.05 -2.42 -0.58 -1.27 -1.64 -3.64 -2.35 -5.26 -0.72 -1.62 -1.46 -3.33 -1.67 -3.77 l-0.36 -0.81 -2.20 0.08 c-4.19 0.17 -7.82 1.20 -11.50 3.26 -0.69 0.39 -1.34 0.84 -1.46 1.01 -0.32 0.45 -0.26 1.46 0.10 1.85 0.17 0.18 0.36 0.32 0.41 0.32 0.07 0 0.58 -0.28 1.13 -0.61 1.61 -0.98 3.39 -1.82 4.92 -2.33 1.78 -0.61 4.52 -1.18 5.98 -1.29 l1.10 -0.07 2.46 5.62 c1.35 3.08 2.52 5.82 2.59 6.07 0.11 0.43 0.17 0.45 0.73 0.45 0.61 0 0.62 -0.01 0.62 -0.45z m-29.45 -10.15 l1.09 -0.84 0 -2.34 c0 -1.80 0.04 -2.44 0.21 -2.74 0.47 -0.91 1.58 -1.31 2.48 -0.88 0.90 0.41 0.95 0.63 1.03 3.48 l0.07 2.55 1.51 1.06 c0.84 0.59 1.56 1.07 1.62 1.07 0.06 0.01 0.10 -2.30 0.10 -5.12 l0 -5.15 0.55 -0.44 c0.30 -0.23 0.55 -0.51 0.55 -0.61 0 -0.10 -0.29 -0.28 -0.65 -0.40 -0.90 -0.32 -2.29 -1.50 -3.57 -3.03 -1.23 -1.47 -1.60 -2.20 -1.57 -3.11 0.04 -1.01 0.03 -1.02 -0.37 -0.96 -0.37 0.04 -0.39 0.08 -0.47 1.01 -0.08 1.14 -0.23 1.43 -1.42 2.92 -1.53 1.90 -3.33 3.35 -4.14 3.35 -0.36 0 -0.23 0.32 0.34 0.84 l0.55 0.51 0 5.12 0 5.12 0.50 -0.29 c0.26 -0.17 0.98 -0.66 1.58 -1.12z"/>
 </g>
 <g fill="#5d9bd1">
  <path d="M43.37 90.51 c-0.66 -0.33 -1.01 -1.06 -0.83 -1.71 0.15 -0.54 0.58 -1.01 1.06 -1.14 0.23 -0.08 0.33 -0.26 0.47 -1.03 0.15 -0.88 0.15 -0.95 -0.12 -1.23 -0.17 -0.17 -0.37 -0.55 -0.45 -0.87 -0.15 -0.47 -0.32 -0.66 -0.94 -1.06 -2.19 -1.40 -5.09 -2.40 -8.10 -2.77 -1.10 -0.14 -1.16 -0.14 -1.64 0.19 -0.58 0.39 -0.67 0.40 -1.28 0.19 -0.50 -0.18 -0.84 -0.73 -0.84 -1.36 0 -0.32 0.12 -0.55 0.43 -0.84 l0.44 -0.41 -0.10 -1.75 c-0.06 -0.96 -0.11 -2.13 -0.14 -2.62 -0.04 -0.70 -0.14 -0.98 -0.51 -1.54 -0.26 -0.37 -0.55 -0.69 -0.65 -0.72 -0.12 -0.03 -0.08 -0.19 0.12 -0.62 l0.29 -0.59 -0.58 -1.06 c-0.80 -1.49 -1.17 -1.96 -1.50 -1.87 -0.44 0.11 -1.27 -0.37 -1.47 -0.87 -0.11 -0.26 -0.19 -0.56 -0.19 -0.69 0 -0.48 0.44 -1.14 0.92 -1.36 1.24 -0.59 2.51 0.72 1.98 2.05 -0.14 0.34 1.82 3.48 2.30 3.70 0.30 0.14 0.39 0.10 0.88 -0.48 0.30 -0.36 1.25 -1.28 2.12 -2.05 1.17 -1.03 1.57 -1.46 1.50 -1.62 -0.39 -0.98 0.03 -1.91 0.94 -2.13 1.02 -0.26 2.04 0.69 1.83 1.71 -0.06 0.30 0.04 0.48 0.56 0.98 0.34 0.33 1.18 1.28 1.87 2.11 1.03 1.23 1.27 1.45 1.35 1.24 0.06 -0.15 0.17 -1.13 0.25 -2.19 0.15 -1.75 0.14 -1.94 -0.07 -2.09 -0.12 -0.10 -0.39 -0.14 -0.59 -0.11 -0.19 0.03 -0.74 0.08 -1.23 0.12 l-0.87 0.08 0.25 -0.41 c0.18 -0.32 0.33 -0.41 0.67 -0.41 0.92 0 1.27 -0.14 1.35 -0.56 0.12 -0.65 0.50 -1.07 1.05 -1.24 0.78 -0.23 1.51 0.15 1.79 0.95 0.19 0.55 0.18 0.63 -0.07 1.10 -0.15 0.29 -0.47 0.59 -0.70 0.70 -0.39 0.17 -0.44 0.28 -0.52 0.90 -0.22 1.76 -0.23 3.47 -0.06 4.08 l0.19 0.61 1.29 0.17 c2.44 0.32 6.24 1.27 8.30 2.07 4.72 1.85 8.73 4.57 11.41 7.75 l0.62 0.76 0.47 -0.55 c2.55 -2.96 5.23 -5 8.96 -6.80 3.19 -1.53 7.37 -2.77 10.85 -3.21 l1.43 -0.18 0.12 -0.47 c0.17 -0.62 0.03 -4.43 -0.18 -4.81 -0.08 -0.17 -0.23 -0.29 -0.33 -0.29 -0.30 0 -0.78 -0.62 -0.85 -1.13 -0.11 -0.66 0.25 -1.32 0.85 -1.57 0.85 -0.36 1.71 0.10 2.01 1.06 0.14 0.50 0.18 0.52 0.90 0.62 0.47 0.06 0.80 0.18 0.91 0.33 0.10 0.14 0.36 0.28 0.58 0.32 0.23 0.03 -0.28 0.07 -1.12 0.08 -0.98 0 -1.60 0.07 -1.73 0.19 -0.18 0.15 -0.18 0.37 -0.03 1.96 0.10 0.99 0.18 1.93 0.18 2.11 0.01 0.17 0.07 0.30 0.14 0.30 0.07 0 0.56 -0.54 1.09 -1.20 0.54 -0.67 1.35 -1.58 1.80 -2.04 0.69 -0.67 0.84 -0.90 0.84 -1.28 0 -0.99 0.69 -1.82 1.51 -1.82 1.01 0 1.82 1.23 1.38 2.08 -0.19 0.36 -0.11 0.48 1.10 1.51 0.56 0.48 1.49 1.34 2.04 1.87 0.56 0.55 1.13 1.01 1.27 1.01 0.18 0 0.50 -0.40 1.02 -1.27 0.41 -0.70 0.88 -1.46 1.03 -1.69 0.22 -0.33 0.26 -0.55 0.21 -1.17 -0.10 -0.95 0.25 -1.57 0.95 -1.76 1.06 -0.29 1.91 0.33 1.94 1.40 0.01 0.83 -0.58 1.47 -1.36 1.50 -0.61 0.01 -0.84 0.29 -1.72 1.91 -0.54 1.01 -0.55 1.07 -0.37 1.45 0.36 0.70 0.41 1.01 0.17 1.01 -0.29 0 -0.99 1.13 -1.10 1.79 -0.06 0.30 -0.03 0.65 0.07 0.81 0.08 0.17 0.10 0.29 0.03 0.29 -0.07 0 -0.18 0.78 -0.23 1.73 -0.10 1.61 -0.08 1.75 0.18 2.02 0.91 1.01 0.69 2.23 -0.44 2.52 -0.36 0.08 -1.18 -0.17 -1.18 -0.36 0 -0.23 -0.51 -0.28 -1.64 -0.12 -2.64 0.34 -4.60 0.95 -6.94 2.16 -1.49 0.77 -2.02 1.21 -2.02 1.69 0 0.14 -0.18 0.45 -0.40 0.70 -0.39 0.44 -0.39 0.47 -0.25 1.32 0.12 0.81 0.17 0.88 0.66 1.13 0.67 0.36 0.95 0.76 0.95 1.45 0 1.28 -1.31 1.93 -2.44 1.21 -0.65 -0.43 -0.74 -1.71 -0.17 -2.33 0.28 -0.29 0.28 -0.32 0.06 -1.16 -0.18 -0.69 -0.34 -0.98 -0.90 -1.53 l-0.67 -0.67 -2.01 0 c-1.10 0 -2.60 0.10 -3.35 0.21 -3.50 0.52 -6.95 2.01 -10.34 4.46 -0.63 0.47 -1.21 0.84 -1.28 0.84 -0.14 0 0.52 -1.01 1.24 -1.89 0.26 -0.33 0.52 -0.59 0.59 -0.59 0.07 0 0.54 -0.28 1.05 -0.61 3.47 -2.23 7.56 -3.40 11.98 -3.44 1.24 0 2.24 -0.06 2.24 -0.10 0 -0.17 -0.59 -0.87 -1.43 -1.73 -0.77 -0.80 -0.88 -0.87 -1.43 -0.87 -0.72 0 -1.17 -0.40 -1.39 -1.21 -0.12 -0.44 -0.29 -0.65 -0.81 -0.98 -0.99 -0.63 -3.14 -1.60 -4.41 -1.98 l-1.13 -0.34 -0.94 0.48 c-2.49 1.32 -5.18 3.54 -7.45 6.17 l-0.70 0.83 -0.72 -0.83 c-2.07 -2.38 -4.50 -4.45 -6.93 -5.84 -1.12 -0.65 -1.29 -0.72 -1.86 -0.65 -0.73 0.07 -2.35 0.69 -3.92 1.49 -1.51 0.77 -1.97 1.14 -2.13 1.75 -0.21 0.77 -0.69 1.16 -1.42 1.14 -0.54 -0.01 -0.66 0.04 -1.21 0.63 -0.91 0.94 -1.50 1.67 -1.50 1.82 0 0.08 0.61 0.14 1.45 0.14 2.60 0 5.43 0.44 7.77 1.18 1.43 0.47 3.87 1.65 5.34 2.60 1.01 0.65 1.38 1.01 2.07 1.91 0.47 0.62 0.78 1.13 0.72 1.16 -0.07 0.03 -0.69 -0.39 -1.39 -0.91 -3.15 -2.35 -5.95 -3.68 -9.34 -4.43 -1.56 -0.34 -4.31 -0.58 -5.55 -0.45 -0.98 0.08 -1.01 0.10 -1.69 0.81 -0.56 0.59 -0.73 0.88 -0.87 1.50 -0.15 0.70 -0.15 0.78 0.11 1.16 0.41 0.56 0.50 1.14 0.25 1.61 -0.45 0.88 -1.23 1.18 -2.02 0.78z m1.68 -7.75 c0.39 0 0.61 -0.14 1.29 -0.85 1.38 -1.45 1.46 -1.58 1.58 -2.33 0.08 -0.55 0.07 -0.81 -0.11 -1.14 -0.34 -0.69 -2 -2.67 -3.19 -3.87 -0.95 -0.94 -1.18 -1.10 -1.60 -1.12 -1.05 -0.03 -1.61 -0.88 -1.32 -1.97 0.17 -0.61 0.15 -0.63 -0.36 -1.38 -0.29 -0.43 -0.99 -1.25 -1.56 -1.83 l-1.05 -1.06 -0.61 0.08 c-0.80 0.10 -1.03 0.25 -2.66 1.75 -1.36 1.25 -2.30 2.37 -2.30 2.73 0 0.12 -0.17 0.45 -0.36 0.74 l-0.37 0.54 0.03 2.69 0.03 2.69 0.40 0.39 c0.23 0.21 0.41 0.47 0.41 0.58 0 0.12 0.28 0.21 0.92 0.28 3.18 0.32 6.29 1.38 8.85 3 0.70 0.45 0.77 0.47 1.13 0.29 0.21 -0.11 0.58 -0.19 0.83 -0.19z m47.55 -1.78 c1.60 -0.62 3.35 -1.05 5.09 -1.25 0.69 -0.07 1.28 -0.14 1.35 -0.14 0.06 0 0.10 -0.08 0.10 -0.19 0 -0.11 0.19 -0.36 0.41 -0.54 l0.41 -0.36 0 -2.81 0 -2.81 -0.58 -1.06 c-0.45 -0.84 -0.90 -1.38 -2.02 -2.45 -1.89 -1.80 -2.16 -2 -2.95 -2.08 l-0.67 -0.07 -1.06 1.06 c-0.58 0.58 -1.28 1.39 -1.57 1.82 -0.45 0.66 -0.51 0.83 -0.39 1.06 0.29 0.54 0.18 1.36 -0.23 1.83 -0.32 0.36 -0.52 0.45 -1.10 0.51 -0.70 0.06 -0.76 0.10 -1.96 1.36 -1.20 1.25 -2.53 2.92 -2.89 3.61 -0.11 0.21 -0.14 0.58 -0.07 1.07 0.08 0.69 0.17 0.83 1.21 1.98 1.01 1.09 1.18 1.23 1.61 1.23 0.26 0.01 0.63 0.10 0.81 0.19 0.29 0.17 0.44 0.11 1.72 -0.63 0.76 -0.44 2.01 -1.05 2.77 -1.34z m-40.66 -3.58 c0.85 -0.44 2.01 -0.98 2.56 -1.18 1.03 -0.40 1.16 -0.52 0.76 -0.69 -2.62 -1.06 -5.23 -1.83 -7.68 -2.26 -2.41 -0.43 -2.82 -0.47 -2.82 -0.28 0 0.08 0.45 0.63 1.01 1.21 0.55 0.58 1.49 1.65 2.08 2.40 0.85 1.06 1.16 1.34 1.45 1.35 0.19 0 0.48 0.06 0.63 0.12 0.41 0.18 0.34 0.19 2.02 -0.67z m31.11 0.55 c0.41 -0.07 0.63 -0.26 1.32 -1.13 0.47 -0.58 1.40 -1.64 2.09 -2.38 0.69 -0.73 1.25 -1.39 1.25 -1.45 0 -0.33 -4.79 0.55 -7.23 1.32 -1.23 0.39 -3.51 1.29 -3.51 1.40 0 0.06 0.58 0.33 1.28 0.62 0.69 0.28 1.79 0.81 2.44 1.18 0.90 0.52 1.25 0.67 1.51 0.61 0.19 -0.06 0.56 -0.14 0.84 -0.18z"/>
 </g>
</svg>